<svg width="670" height="425" viewBox="0 0 670 425" fill="none" xmlns="http://www.w3.org/2000/svg">
<rect x="3" y="36" width="663" height="484" fill="white"/>
<rect x="3" y="3" width="662" height="32" fill="#4D46DD"/>
<g clip-path="url(#clip0_0_1)">
<path d="M2 2.00004C2 2.00004 146.636 3.50006 335 2.00004C523.364 0.500031 668 2.00004 668 2.00004" stroke="black" stroke-width="3" stroke-linecap="round" stroke-linejoin="round"/>
<path d="M2.00004 523C2.00004 523 3.50006 410.071 2.00004 263C0.500031 115.929 2.00004 2.99999 2.00004 2.99999" stroke="black" stroke-width="3" stroke-linecap="round" stroke-linejoin="round"/>
<path d="M667 522C667 522 670.75 409.288 667 262.5C663.25 115.712 667 3.00002 667 3.00002" stroke="black" stroke-width="3" stroke-linecap="round" stroke-linejoin="round"/>
</g>
<path d="M663 35C577.857 36 531.577 35.4954 444.769 35C357.146 34.5 308.374 34.5 223.231 35C138.011 35.5005 90.1432 35.5 5.00001 35" stroke="black" stroke-width="3" stroke-linecap="round" stroke-linejoin="round"/>
<circle cx="19" cy="19" r="4.5" fill="white" stroke="black" stroke-width="3"/>
<circle cx="37" cy="19" r="4.5" fill="white" stroke="black" stroke-width="3"/>
<circle cx="55" cy="19" r="4.5" fill="white" stroke="black" stroke-width="3"/>
<path d="M321.127 12.504C321.234 12.44 321.373 12.408 321.543 12.408C321.714 12.408 321.869 12.4827 322.007 12.632C322.146 12.7707 322.215 12.936 322.215 13.128C322.215 17.2987 322.231 19.8213 322.263 20.696C322.306 21.56 322.327 22.0027 322.327 22.024C322.327 22.2587 322.263 22.4827 322.135 22.696C322.007 22.8987 321.863 23 321.703 23C321.554 23 321.437 22.9947 321.351 22.984C321.277 22.9627 321.207 22.9413 321.143 22.92C321.079 22.8987 321.015 22.856 320.951 22.792L320.791 22.632C320.749 22.5893 320.69 22.5093 320.615 22.392C320.551 22.264 320.498 22.1627 320.455 22.088C320.413 22.0133 320.343 21.8853 320.247 21.704C320.162 21.512 319.965 21.128 319.655 20.552C319.357 19.976 319.085 19.4587 318.839 19C317.997 17.4533 317.213 16.232 316.487 15.336C316.487 18.8027 316.391 21.208 316.199 22.552C316.167 22.808 315.97 22.936 315.607 22.936C315.437 22.936 315.293 22.8933 315.175 22.808C315.069 22.7227 315.015 22.584 315.015 22.392C315.015 22.2 315.053 21.144 315.127 19.224C315.213 17.304 315.255 16.1093 315.255 15.64C315.255 15.16 315.255 14.856 315.255 14.728C315.255 13.96 315.314 13.528 315.431 13.432C315.549 13.336 315.671 13.288 315.799 13.288C316.386 13.288 317.282 14.248 318.487 16.168C318.722 16.5413 319.17 17.3253 319.831 18.52C320.493 19.704 320.887 20.4347 321.015 20.712L320.823 14.072C320.823 13.1547 320.925 12.632 321.127 12.504ZM326.315 15.544C327.083 15.544 327.712 15.912 328.203 16.648C328.704 17.384 328.955 18.2693 328.955 19.304C328.955 20.328 328.699 21.2027 328.187 21.928C327.686 22.6533 327.014 23.016 326.171 23.016C325.339 23.016 324.667 22.648 324.155 21.912C323.643 21.1653 323.387 20.3387 323.387 19.432C323.387 18.2693 323.622 17.3413 324.091 16.648C324.592 15.912 325.334 15.544 326.315 15.544ZM326.123 16.856C325.675 16.856 325.307 17.0907 325.019 17.56C324.731 18.0293 324.587 18.5253 324.587 19.048C324.587 19.8587 324.747 20.4773 325.067 20.904C325.387 21.3307 325.75 21.544 326.155 21.544C326.88 21.544 327.344 21.2293 327.547 20.6C327.632 20.3013 327.675 19.928 327.675 19.48C327.675 17.7307 327.158 16.856 326.123 16.856ZM330.336 15.528L331.136 15.544C331.317 15.544 331.419 15.5387 331.44 15.528V12.248C331.451 12.0667 331.541 11.912 331.712 11.784C331.883 11.656 332.043 11.592 332.192 11.592C332.341 11.592 332.459 11.64 332.544 11.736C332.64 11.832 332.683 11.9813 332.672 12.184C332.661 12.3867 332.656 13.496 332.656 15.512L334.528 15.448C334.848 15.448 335.008 15.6347 335.008 16.008C335.008 16.2853 334.923 16.4933 334.752 16.632C334.592 16.7707 334.416 16.8453 334.224 16.856C334.043 16.8667 333.861 16.872 333.68 16.872L332.704 16.856C332.704 17.2933 332.747 18.1573 332.832 19.448C332.928 20.7387 333.003 21.576 333.056 21.96C333.109 22.3333 333.12 22.5787 333.088 22.696C333.056 22.8027 332.997 22.8773 332.912 22.92C332.773 22.984 332.587 23.016 332.352 23.016C332.117 23.016 331.979 22.888 331.936 22.632C331.723 21.2347 331.579 19.3147 331.504 16.872C331.408 16.8827 331.04 16.888 330.4 16.888C329.76 16.888 329.44 16.7013 329.44 16.328C329.44 15.7947 329.739 15.528 330.336 15.528ZM337.74 15.592C338.305 15.592 338.844 15.7573 339.356 16.088C339.868 16.4187 340.124 16.8293 340.124 17.32C340.124 17.8 339.916 18.2693 339.5 18.728C339.084 19.176 338.529 19.448 337.836 19.544C337.537 19.5867 337.089 19.608 336.492 19.608C336.609 20.5147 336.839 21.112 337.18 21.4C337.287 21.5173 337.431 21.576 337.612 21.576C338.273 21.576 338.828 21.368 339.276 20.952C339.724 20.5253 340.044 20.312 340.236 20.312C340.321 20.312 340.449 20.392 340.62 20.552C340.791 20.712 340.876 20.8613 340.876 21C340.876 21.2773 340.54 21.6773 339.868 22.2C339.569 22.4453 339.207 22.6533 338.78 22.824C338.364 22.984 337.975 23.064 337.612 23.064C336.684 23.064 336.001 22.4667 335.564 21.272C335.287 20.536 335.148 19.7253 335.148 18.84C335.148 17.9547 335.356 17.192 335.772 16.552C336.188 15.912 336.844 15.592 337.74 15.592ZM337.82 16.696C337.415 16.696 337.068 16.9253 336.78 17.384C336.673 17.544 336.572 17.9067 336.476 18.472C337.969 18.472 338.716 18.104 338.716 17.368C338.716 16.92 338.417 16.696 337.82 16.696ZM342.915 21.08C343.15 21.08 343.352 21.1653 343.523 21.336C343.694 21.5067 343.795 21.7413 343.827 22.04C343.827 22.2747 343.742 22.4933 343.571 22.696C343.4 22.888 343.198 22.984 342.963 22.984C342.739 22.984 342.536 22.9253 342.355 22.808C342.174 22.68 342.083 22.488 342.083 22.232C342.083 21.976 342.163 21.72 342.323 21.464C342.494 21.208 342.691 21.08 342.915 21.08ZM345.185 12.648C345.217 12.2427 345.281 11.9813 345.377 11.864C345.484 11.736 345.649 11.672 345.873 11.672C346.332 11.672 346.561 11.8587 346.561 12.232C346.561 12.52 346.534 13.272 346.481 14.488C346.438 15.704 346.417 16.792 346.417 17.752C346.417 18.712 346.454 19.4853 346.529 20.072C346.657 21.096 346.838 21.608 347.073 21.608C347.308 21.608 347.484 21.4427 347.601 21.112C347.654 20.984 347.74 20.872 347.857 20.776C347.974 20.6693 348.124 20.616 348.305 20.616C348.678 20.616 348.865 20.9307 348.865 21.56C348.865 21.9013 348.678 22.2427 348.305 22.584C347.942 22.9147 347.58 23.08 347.217 23.08C346.854 23.08 346.561 23.0213 346.337 22.904C346.124 22.776 345.948 22.5893 345.809 22.344C345.681 22.0987 345.574 21.864 345.489 21.64C345.414 21.4053 345.361 21.1227 345.329 20.792C345.265 20.2587 345.217 19.4053 345.185 18.232C345.164 17.048 345.153 15.9227 345.153 14.856C345.153 13.7787 345.164 13.0427 345.185 12.648ZM354.587 15.608C354.726 15.608 354.859 15.656 354.987 15.752C355.126 15.848 355.195 15.9547 355.195 16.072C355.195 16.3813 354.742 18.056 353.835 21.096C352.928 24.136 352.256 26.2693 351.819 27.496C351.723 27.784 351.574 27.928 351.371 27.928C351.168 27.928 351.008 27.8533 350.891 27.704C350.774 27.5653 350.715 27.3573 350.715 27.08C350.715 26.8027 350.891 26.136 351.243 25.08C351.606 24.0347 351.824 23.368 351.899 23.08C351.632 22.632 350.731 20.392 349.195 16.36C349.174 16.3067 349.163 16.2373 349.163 16.152C349.163 16.0667 349.227 15.9547 349.355 15.816C349.483 15.6773 349.659 15.608 349.883 15.608C350.107 15.608 350.288 15.72 350.427 15.944C350.576 16.328 350.822 17 351.163 17.96C351.504 18.9093 351.766 19.5973 351.947 20.024C352.139 20.4507 352.32 20.8933 352.491 21.352C352.64 20.8507 352.896 19.88 353.259 18.44C353.622 16.9893 353.83 16.1627 353.883 15.96C353.926 15.7253 354.16 15.608 354.587 15.608Z" fill="white"/>
<path fill-rule="evenodd" clip-rule="evenodd" d="M249.38 258.338C244.26 259.077 239.454 260.147 235.12 261.648C234.649 261.813 234.505 262.045 234.462 262.144C234.391 262.321 234.42 262.486 234.534 262.641C234.606 262.74 234.72 262.861 234.963 262.939C235.135 262.994 235.578 263.038 236.165 263.027C237.166 263.016 238.71 262.928 239.454 262.928C242 262.95 244.546 262.939 247.092 262.972C255.201 263.082 256.617 263.17 267.043 263.104C279.215 263.027 291.415 262.894 303.6 262.696C264.869 264.351 226.196 266.282 187.722 268.08C187.293 268.102 186.964 268.389 186.993 268.72C187.007 269.062 187.393 269.316 187.822 269.294C277.598 265.101 368.361 260.158 458.824 259.838C463.286 259.915 467.734 259.993 472.168 260.07C498.956 260.555 525.759 261.14 552.518 262.045C561.228 262.343 569.939 262.674 578.663 262.983C581.237 263.071 583.826 263.159 586.415 263.247C588.503 263.314 593.881 263.556 594.639 263.567C595.325 263.578 595.497 263.104 595.511 263.082C595.554 262.928 595.526 262.751 595.354 262.585C595.311 262.541 595.197 262.42 594.939 262.365C594.896 262.365 594.696 262.343 594.281 262.31C572.771 260.953 551.203 260.015 529.592 259.419C532.495 259.441 535.398 259.452 538.302 259.474C560.685 259.607 583.125 260.081 605.494 259.474C610.586 259.342 615.692 259.187 620.769 259C624.188 258.878 632.983 259.033 634.228 258.746C634.8 258.625 634.929 258.316 634.943 258.161C634.957 257.985 634.914 257.786 634.657 257.61C634.542 257.521 634.185 257.378 633.513 257.268C611.558 253.594 585.872 254.631 563.517 253.605C502.803 250.791 442.304 252.667 381.605 254.377C329.216 255.855 276.826 255.933 224.465 257.941C205.3 258.669 185.534 257.83 166.641 260.611C166.212 260.677 165.94 260.986 166.011 261.317C166.097 261.648 166.512 261.868 166.941 261.802C185.749 259.033 205.443 259.882 224.537 259.154C232.818 258.834 241.099 258.569 249.38 258.338ZM411.354 259.154C379.274 258.768 347.194 258.569 315.085 258.691C293.059 258.768 260.965 255.535 239.082 261.714C239.24 261.714 239.368 261.714 239.483 261.714C242.028 261.736 244.574 261.714 247.12 261.758C255.215 261.868 256.631 261.957 267.029 261.89C293.617 261.714 320.277 261.273 346.851 260.589C368.376 260.037 389.872 259.54 411.354 259.154ZM628.364 257.731C607.611 254.928 584.084 255.767 563.417 254.818C502.76 252.005 442.304 253.88 381.662 255.591C354.559 256.363 327.471 256.749 300.396 257.223C305.588 257.378 310.551 257.488 315.085 257.477C360.981 257.301 406.863 257.775 452.759 258.525C481.264 258.194 509.769 258.073 538.316 258.25C560.685 258.393 583.082 258.856 605.451 258.261C610.529 258.128 615.62 257.974 620.698 257.786C622.428 257.731 625.561 257.742 628.364 257.731Z" fill="black"/>
<path fill-rule="evenodd" clip-rule="evenodd" d="M229.357 90.3378C225.405 91.077 221.696 92.1472 218.351 93.6477C217.987 93.8132 217.876 94.0448 217.843 94.1441C217.788 94.3207 217.81 94.4863 217.898 94.6407C217.954 94.74 218.042 94.8614 218.23 94.9386C218.362 94.9938 218.704 95.0379 219.157 95.0268C219.93 95.0158 221.122 94.9276 221.696 94.9276C223.661 94.9497 225.626 94.9385 227.591 94.9716C233.85 95.082 234.943 95.1702 242.991 95.104C252.385 95.0268 261.802 94.8944 271.207 94.6958C241.313 96.3508 211.462 98.2816 181.767 100.08C181.435 100.102 181.181 100.389 181.204 100.72C181.215 101.062 181.513 101.316 181.844 101.294C251.138 97.1011 321.194 92.1582 391.017 91.8383C394.462 91.9155 397.895 91.9927 401.317 92.0699C421.994 92.5554 442.681 93.1402 463.336 94.0449C470.059 94.3428 476.782 94.6737 483.516 94.9827C485.503 95.0709 487.501 95.1592 489.499 95.2475C491.111 95.3137 495.262 95.5564 495.847 95.5675C496.377 95.5785 496.509 95.1041 496.52 95.0821C496.554 94.9276 496.531 94.751 496.399 94.5855C496.366 94.5414 496.278 94.4201 496.079 94.3649C496.046 94.3649 495.891 94.3428 495.571 94.3097C478.968 92.9526 462.321 92.0148 445.64 91.419C447.881 91.4411 450.122 91.4521 452.363 91.4742C469.64 91.6066 486.96 92.081 504.226 91.4742C508.156 91.3418 512.097 91.1873 516.016 90.9997C518.654 90.8784 525.443 91.0329 526.404 90.746C526.845 90.6246 526.945 90.3157 526.956 90.1612C526.967 89.9847 526.934 89.7861 526.735 89.6095C526.647 89.5213 526.371 89.3779 525.852 89.2676C508.906 85.5936 489.08 86.6306 471.825 85.6045C424.963 82.7911 378.267 84.6668 331.416 86.3769C290.979 87.8554 250.542 87.9326 210.127 89.9406C195.334 90.6688 180.078 89.8303 165.495 92.6107C165.163 92.6769 164.954 92.9857 165.009 93.3167C165.075 93.6477 165.395 93.8684 165.726 93.8022C180.243 91.0329 195.444 91.8824 210.182 91.1542C216.574 90.8342 222.965 90.5695 229.357 90.3378ZM354.378 91.1542C329.617 90.768 304.855 90.5694 280.072 90.6908C263.071 90.768 238.299 87.5354 221.409 93.714C221.53 93.714 221.63 93.714 221.718 93.714C223.683 93.736 225.648 93.7139 227.613 93.758C233.861 93.8683 234.954 93.9566 242.98 93.8904C263.502 93.7139 284.079 93.2726 304.59 92.5886C321.205 92.0369 337.797 91.5404 354.378 91.1542ZM521.878 89.7309C505.86 86.9285 487.7 87.7671 471.748 86.8183C424.93 84.0048 378.267 85.8804 331.46 87.5905C310.541 88.3628 289.632 88.749 268.735 89.2234C272.742 89.3779 276.573 89.4882 280.072 89.4772C315.497 89.3006 350.911 89.7751 386.337 90.5254C408.338 90.1944 430.34 90.073 452.374 90.2496C469.64 90.393 486.927 90.8564 504.193 90.2606C508.112 90.1282 512.042 89.9737 515.961 89.7861C517.296 89.7309 519.714 89.7419 521.878 89.7309Z" fill="black"/>
<path fill-rule="evenodd" clip-rule="evenodd" d="M237.38 156.338C232.26 157.077 227.454 158.147 223.12 159.648C222.649 159.813 222.505 160.045 222.462 160.144C222.391 160.321 222.42 160.486 222.534 160.641C222.606 160.74 222.72 160.861 222.963 160.939C223.135 160.994 223.578 161.038 224.165 161.027C225.166 161.016 226.71 160.928 227.454 160.928C230 160.95 232.546 160.939 235.092 160.972C243.201 161.082 244.617 161.17 255.043 161.104C267.215 161.027 279.415 160.894 291.6 160.696C252.869 162.351 214.196 164.282 175.722 166.08C175.293 166.102 174.964 166.389 174.993 166.72C175.007 167.062 175.393 167.316 175.822 167.294C265.598 163.101 356.361 158.158 446.824 157.838C451.286 157.915 455.734 157.993 460.168 158.07C486.956 158.555 513.759 159.14 540.518 160.045C549.228 160.343 557.939 160.674 566.663 160.983C569.237 161.071 571.826 161.159 574.415 161.247C576.503 161.314 581.881 161.556 582.639 161.567C583.325 161.578 583.497 161.104 583.511 161.082C583.554 160.928 583.526 160.751 583.354 160.585C583.311 160.541 583.197 160.42 582.939 160.365C582.896 160.365 582.696 160.343 582.281 160.31C560.771 158.953 539.203 158.015 517.592 157.419C520.495 157.441 523.398 157.452 526.302 157.474C548.685 157.607 571.125 158.081 593.494 157.474C598.586 157.342 603.692 157.187 608.769 157C612.188 156.878 620.983 157.033 622.228 156.746C622.8 156.625 622.929 156.316 622.943 156.161C622.957 155.985 622.914 155.786 622.657 155.61C622.542 155.521 622.185 155.378 621.513 155.268C599.558 151.594 573.872 152.631 551.517 151.605C490.803 148.791 430.304 150.667 369.605 152.377C317.216 153.855 264.826 153.933 212.465 155.941C193.3 156.669 173.534 155.83 154.641 158.611C154.212 158.677 153.94 158.986 154.011 159.317C154.097 159.648 154.512 159.868 154.941 159.802C173.749 157.033 193.443 157.882 212.537 157.154C220.818 156.834 229.099 156.569 237.38 156.338ZM399.354 157.154C367.274 156.768 335.194 156.569 303.085 156.691C281.059 156.768 248.965 153.535 227.082 159.714C227.24 159.714 227.368 159.714 227.483 159.714C230.028 159.736 232.574 159.714 235.12 159.758C243.215 159.868 244.631 159.957 255.029 159.89C281.617 159.714 308.277 159.273 334.851 158.589C356.376 158.037 377.872 157.54 399.354 157.154ZM616.364 155.731C595.611 152.928 572.084 153.767 551.417 152.818C490.76 150.005 430.304 151.88 369.662 153.591C342.559 154.363 315.471 154.749 288.396 155.223C293.588 155.378 298.551 155.488 303.085 155.477C348.981 155.301 394.863 155.775 440.759 156.525C469.264 156.194 497.769 156.073 526.316 156.25C548.685 156.393 571.082 156.856 593.451 156.261C598.529 156.128 603.62 155.974 608.698 155.786C610.428 155.731 613.561 155.742 616.364 155.731Z" fill="black"/>
<defs>
<clipPath id="clip0_0_1">
<rect width="670" height="524" fill="white"/>
</clipPath>
</defs>
</svg>
