<svg width="373" height="389" viewBox="0 0 373 389" fill="none" xmlns="http://www.w3.org/2000/svg">
<path d="M365.997 542.025C368.695 590.788 333.543 619.44 275.11 620M366.633 540.694C367.905 591.042 337.775 620.755 273.516 618.669M93.3407 618.007C32.0467 618.202 5.61843 593.141 2.07492 544.181M90.2649 615.218C36.3178 616.059 1.4958 592.533 2.73044 543.874M2.45516 77.5915C4.43994 24.6078 33.6731 0.394573 92.4893 2.75424M1.00003 77.9579C2.42983 26.1777 34.7759 2.20101 92.6755 4.42378M275.112 1.60979C338.179 4.06966 368.287 29.5246 362.746 76.7529M276.971 3.89597C339.528 -1.12742 369.808 23.8441 362.472 79.0712M364.962 77.9634C367.997 252.488 367.816 425.681 364.78 541.176L364.962 77.9634ZM364.984 77.9454C369.252 241.62 368.368 406.573 366.148 542.58L364.984 77.9454ZM277.555 616.384C205.826 614.281 137.127 617.709 91.1939 617.077L277.555 616.384ZM274.424 618.075C220.522 617.324 165.877 617.516 92.8414 619.267L274.424 618.075ZM3.21806 542.051C4.05765 438.068 1.78361 338.463 2.63846 78.3445L3.21806 542.051ZM2.23737 541.091C3.44513 389.019 4.08683 236.964 1.98328 78.3364L2.23737 541.091ZM90.9858 4.34881C133.92 4.20198 179.456 3.69614 275.054 0.999996L90.9858 4.34881ZM94.0692 1.70171C137.117 0.990542 182.493 2.76793 276.637 1.41204L94.0692 1.70171Z" stroke="black"/>
<path fill-rule="evenodd" clip-rule="evenodd" d="M107.841 183.203C96.9077 183.64 86.1025 184.178 75.5657 184.766C60.6497 185.597 45.7394 186.458 30.9191 187.82C26.2539 188.25 21.5165 188.522 16.8805 189.06C13.9703 189.397 10.1115 189.877 9.6051 189.977C9.34023 190.035 9.22467 190.121 9.18733 190.15C8.92478 190.35 8.97269 190.544 9.12088 190.694C9.18039 190.759 9.33087 190.917 9.74861 190.938C37.6857 192.408 66.2529 189.54 94.2239 189.239C142.731 188.723 192.707 190.773 240.829 195.246C241.249 195.282 241.657 195.103 241.716 194.838C241.786 194.58 241.482 194.329 241.062 194.293C192.859 189.813 142.801 187.755 94.2005 188.278C68.1327 188.558 41.5504 191.074 15.4464 190.214C16.0462 190.142 16.6343 190.071 17.1711 190.006C21.7884 189.468 26.506 189.203 31.1525 188.773C45.9413 187.411 60.8212 186.551 75.7174 185.727C94.2006 184.694 113.489 183.805 132.929 183.39C139.883 183.454 146.814 183.519 153.746 183.597C168.74 183.77 183.804 184.271 198.763 184.945C203.268 185.153 207.772 185.368 212.276 185.554C213.769 185.619 217.62 185.805 218.157 185.791C218.822 185.777 218.95 185.433 218.962 185.375C218.997 185.246 218.973 185.067 218.647 184.916C218.612 184.895 218.402 184.823 217.935 184.78C190.735 182.243 161.692 181.82 132.952 182.429C102.637 182.164 72.2051 182.049 41.967 181.927C41.5341 181.927 41.1805 182.142 41.177 182.407C41.1747 182.673 41.5235 182.888 41.9564 182.895C63.8515 182.981 85.8574 183.067 107.841 183.203Z" fill="black"/>
<path fill-rule="evenodd" clip-rule="evenodd" d="M157.051 240.203C142.222 240.64 127.568 241.178 113.278 241.766C93.0485 242.597 72.8269 243.458 52.7271 244.82C46.4002 245.25 39.9751 245.522 33.6877 246.06C29.7409 246.397 24.5075 246.877 23.8207 246.977C23.4614 247.035 23.3047 247.121 23.2541 247.15C22.898 247.35 22.963 247.544 23.1639 247.694C23.2447 247.759 23.4487 247.917 24.0153 247.938C61.9042 249.408 100.648 246.54 138.583 246.239C204.368 245.723 272.148 247.773 337.412 252.246C337.981 252.282 338.535 252.103 338.614 251.838C338.709 251.58 338.298 251.329 337.728 251.293C272.354 246.813 204.463 244.755 138.551 245.278C103.197 245.558 67.1456 248.074 31.7428 247.214C32.5562 247.142 33.3538 247.071 34.0818 247.006C40.3439 246.468 46.742 246.203 53.0437 245.773C73.1007 244.411 93.2811 243.551 113.484 242.727C138.551 241.694 164.71 240.805 191.075 240.39C200.507 240.454 209.907 240.519 219.307 240.597C239.643 240.77 260.074 241.271 280.362 241.945C286.47 242.153 292.579 242.368 298.687 242.554C300.713 242.619 305.935 242.805 306.663 242.791C307.565 242.777 307.739 242.433 307.755 242.375C307.803 242.246 307.771 242.067 307.328 241.916C307.28 241.895 306.995 241.823 306.362 241.78C269.474 239.243 230.085 238.82 191.107 239.429C149.993 239.164 108.72 239.049 67.7106 238.927C67.1235 238.927 66.6439 239.142 66.6392 239.407C66.636 239.673 67.1092 239.888 67.6963 239.895C97.3909 239.981 127.236 240.067 157.051 240.203Z" fill="black"/>
<path fill-rule="evenodd" clip-rule="evenodd" d="M143.051 331.203C128.222 331.641 113.568 332.178 99.278 332.766C79.0485 333.598 58.8269 334.458 38.7271 335.82C32.4002 336.25 25.9751 336.522 19.6877 337.06C15.7409 337.397 10.5075 337.877 9.82066 337.978C9.46142 338.035 9.3047 338.121 9.25406 338.15C8.89799 338.35 8.96296 338.544 9.16394 338.694C9.24465 338.759 9.44874 338.917 10.0153 338.938C47.9042 340.408 86.6478 337.54 124.583 337.239C190.368 336.723 258.148 338.773 323.412 343.247C323.981 343.282 324.535 343.103 324.614 342.838C324.709 342.58 324.298 342.329 323.728 342.293C258.354 337.813 190.463 335.755 124.551 336.279C89.1972 336.558 53.1456 339.074 17.7428 338.214C18.5562 338.142 19.3538 338.071 20.0818 338.006C26.3439 337.469 32.742 337.203 39.0437 336.773C59.1007 335.411 79.2811 334.551 99.4837 333.727C124.551 332.694 150.71 331.805 177.075 331.39C186.507 331.454 195.907 331.519 205.307 331.598C225.643 331.77 246.074 332.271 266.362 332.945C272.47 333.153 278.579 333.368 284.687 333.555C286.713 333.619 291.935 333.805 292.663 333.791C293.565 333.777 293.739 333.433 293.755 333.375C293.803 333.246 293.771 333.067 293.328 332.917C293.28 332.895 292.995 332.823 292.362 332.78C255.474 330.243 216.085 329.82 177.107 330.429C135.993 330.164 94.7203 330.049 53.7106 329.927C53.1235 329.927 52.6439 330.142 52.6392 330.408C52.636 330.673 53.1092 330.888 53.6963 330.895C83.3909 330.981 113.236 331.067 143.051 331.203Z" fill="black"/>
<path d="M32.8875 71.4353C34.021 71.339 35.2745 71.7164 36.3747 72.1718C37.4748 72.6272 38.6349 73.3607 39.4883 74.1676C40.3417 74.9745 41.0239 75.9604 41.4951 77.0134C41.9663 78.0664 42.2809 79.3076 42.3157 80.4857C42.3505 81.6637 42.1144 82.9586 41.7037 84.0818C41.293 85.205 40.6278 86.3488 39.8516 87.225C39.0754 88.1011 38.0723 88.781 37.0464 89.3384C36.0205 89.8959 34.8365 90.4164 33.6961 90.5696C32.5558 90.7228 31.3263 90.5742 30.2042 90.2576C29.082 89.941 27.9175 89.3884 26.9633 88.6702C26.009 87.9521 25.1221 86.9811 24.4785 85.9487C23.835 84.9162 23.3186 83.6187 23.1018 82.4754C22.8851 81.3321 22.936 80.2394 23.178 79.089C23.42 77.9387 23.9106 76.5946 24.5538 75.5732C25.197 74.5519 26.0485 73.6403 27.0374 72.9611C28.0262 72.2818 29.5261 71.7768 30.4871 71.4977C31.4482 71.2186 32.4258 71.2791 32.8037 71.2863C33.1815 71.2935 32.741 71.3629 32.7543 71.5411M36.7705 72.2699C37.8457 72.6231 38.8385 73.5841 39.6501 74.4475C40.4617 75.311 41.2089 76.3412 41.6399 77.4506C42.0709 78.56 42.2545 79.9338 42.2361 81.1039C42.2176 82.2741 41.9532 83.3975 41.5291 84.4714C41.1051 85.5453 40.496 86.6761 39.6918 87.5474C38.8876 88.4187 37.7864 89.2121 36.7037 89.6991C35.6211 90.1861 34.3792 90.4028 33.1957 90.4695C32.0122 90.5361 30.7271 90.4515 29.6027 90.0989C28.4784 89.7463 27.3509 89.1162 26.4498 88.3538C25.5487 87.5913 24.7418 86.57 24.1963 85.5244C23.6509 84.4788 23.3271 83.2396 23.1771 82.0801C23.027 80.9207 23.0109 79.7088 23.296 78.5679C23.5811 77.4269 24.1735 76.1978 24.8876 75.2342C25.6017 74.2707 26.5852 73.4103 27.5806 72.7867C28.576 72.163 29.6965 71.6884 30.8598 71.4924C32.0232 71.2964 33.4658 71.425 34.5605 71.6106C35.6552 71.7963 36.8826 72.3559 37.4279 72.6063C37.9732 72.8567 37.9232 72.9794 37.8322 73.1131L36.7705 72.2699Z" stroke="black" stroke-width="1.5"/>
<path d="M38.9057 88.5518C40.785 90.3985 47.8814 98.2689 49.6453 100.232M38.6824 88.8246C40.5804 90.6604 48.0725 98.1125 49.9221 99.9896L38.6824 88.8246Z" stroke="black" stroke-width="1.5"/>
<path d="M324.62 65.214C353.788 64.9257 370.927 68.6826 371.262 74.9275M323.824 65.1461C353.94 65.0102 371.713 68.2302 370.466 75.0979M370.069 94.3538C370.186 100.905 355.196 103.729 325.909 104.108M368.401 94.6826C368.904 100.448 354.832 104.17 325.726 104.038M46.814 104.067C15.1213 103.855 0.637866 100.731 2.04932 94.4448M47.0332 104.223C16.0603 104.07 1.71841 100.613 3.04798 94.4249M1.36476 74.9273C2.83615 68.1871 18.0623 64.9693 46.3124 65.5615M2.73226 74.7286C-0.272538 68.0429 14.6645 64.8067 47.6991 65.5908M47.0365 65.3247C151.431 65.0003 255.028 65.0196 324.112 65.3441L47.0365 65.3247ZM47.0257 65.3224C144.93 64.8662 243.598 64.9606 324.952 65.198L47.0257 65.3224ZM369.099 74.6662C367.84 82.3321 369.891 89.6743 369.513 94.5833L369.099 74.6662ZM370.11 75.0008C369.661 80.7616 369.776 86.6016 370.823 94.4072L370.11 75.0008ZM324.635 103.986C262.437 103.896 202.857 104.139 47.2645 104.048L324.635 103.986ZM324.061 104.09C233.098 103.961 142.144 103.893 47.2596 104.118L324.061 104.09ZM3.00314 94.6055C2.9153 90.017 2.61273 85.1503 1 74.9335L3.00314 94.6055ZM1.41975 94.276C0.994349 89.6753 2.05751 84.8258 1.24647 74.7643L1.41975 94.276Z" stroke="black" stroke-width="1.5"/>
<path d="M76.0264 90.9176C76.0264 91.0153 76.0215 91.0885 76.0117 91.1373C75.9629 91.1569 75.9238 91.1862 75.8945 91.2252C75.8652 91.2545 75.8164 91.2643 75.748 91.2545C75.7285 91.401 75.6797 91.5231 75.6016 91.6207C75.5234 91.7184 75.4404 91.8063 75.3525 91.8844C75.2744 91.9723 75.1963 92.0602 75.1182 92.1481C75.04 92.2457 74.9912 92.3678 74.9717 92.5143C74.8252 92.5924 74.6787 92.6949 74.5322 92.8219C74.3955 92.9586 74.2734 93.0514 74.166 93.1002C74.0879 93.1393 74.0049 93.1686 73.917 93.1881C73.8291 93.2174 73.7412 93.2516 73.6533 93.2906C73.3701 93.4176 73.0771 93.5494 72.7744 93.6862C72.4814 93.8229 72.1738 93.8912 71.8516 93.8912H71.749C71.71 93.9303 71.6611 93.9547 71.6025 93.9645C71.5439 93.984 71.4854 93.9987 71.4268 94.0084C71.3682 94.0182 71.3096 94.0328 71.251 94.0524C71.1924 94.0719 71.1484 94.1012 71.1191 94.1403C71.0117 94.1012 70.8945 94.0817 70.7676 94.0817H70.665C70.499 94.1207 70.3428 94.15 70.1963 94.1696C70.0498 94.1891 69.8936 94.1989 69.7275 94.1989C69.4346 94.1989 69.1416 94.1793 68.8486 94.1403C68.5557 94.1012 68.2627 94.067 67.9697 94.0377C67.7842 93.8912 67.6328 93.7057 67.5156 93.4811C67.3984 93.2662 67.3398 93.0367 67.3398 92.7926C67.3398 92.6071 67.3789 92.4313 67.457 92.2653C67.5352 92.109 67.6377 91.9674 67.7646 91.8405H67.8086C67.8965 91.8405 67.9844 91.8209 68.0723 91.7819C68.1699 91.7428 68.2627 91.7233 68.3506 91.7233C68.4482 91.7233 68.5264 91.7623 68.585 91.8405C68.6533 91.9186 68.7021 92.0114 68.7314 92.1188C68.7705 92.2262 68.7949 92.3336 68.8047 92.441C68.8145 92.5582 68.8193 92.651 68.8193 92.7194C68.9268 92.7682 69.0391 92.7975 69.1562 92.8073C69.2832 92.817 69.4102 92.8219 69.5371 92.8219C69.6641 92.8219 69.8057 92.8121 69.9619 92.7926C70.1182 92.7828 70.2744 92.7584 70.4307 92.7194C70.5967 92.6901 70.7529 92.651 70.8994 92.6022C71.0557 92.5533 71.1875 92.4899 71.2949 92.4117C71.832 92.3629 72.3057 92.2408 72.7158 92.0455C73.126 91.8502 73.5605 91.6207 74.0195 91.3571C74.0391 91.2496 74.0781 91.1666 74.1367 91.108C74.2051 91.0397 74.2393 90.942 74.2393 90.8151C74.2393 90.7955 74.2344 90.776 74.2246 90.7565C74.2246 90.7272 74.2246 90.7028 74.2246 90.6832C74.0293 90.4391 73.8242 90.2242 73.6094 90.0387C73.4043 89.8531 73.1357 89.7311 72.8037 89.6725C72.7646 89.5846 72.7012 89.5211 72.6133 89.4821C72.5254 89.4332 72.4326 89.3893 72.335 89.3502C72.2373 89.3112 72.1445 89.2721 72.0566 89.233C71.9688 89.1842 71.9053 89.1061 71.8662 88.9987C71.6025 88.9498 71.3291 88.8912 71.0459 88.8229C70.7725 88.7448 70.5381 88.608 70.3428 88.4127C70.1865 88.403 70.0352 88.3737 69.8887 88.3248C69.752 88.2662 69.6152 88.2125 69.4785 88.1637C69.3418 88.1051 69.2002 88.0563 69.0537 88.0172C68.9072 87.9684 68.7559 87.944 68.5996 87.944C68.5605 87.8756 68.5068 87.8219 68.4385 87.7828C68.3701 87.7438 68.292 87.7096 68.2041 87.6803C68.126 87.651 68.0479 87.6217 67.9697 87.5924C67.9014 87.5533 67.8477 87.4996 67.8086 87.4313C67.7695 87.441 67.7402 87.4606 67.7207 87.4899C67.7012 87.5192 67.667 87.5338 67.6182 87.5338H67.5596C67.54 87.4752 67.501 87.4362 67.4424 87.4166C67.3838 87.3873 67.3496 87.3336 67.3398 87.2555C67.1641 87.2457 67.0029 87.2115 66.8564 87.153C66.7197 87.0944 66.5879 87.0309 66.4609 86.9625C66.3438 86.8844 66.2217 86.8112 66.0947 86.7428C65.9678 86.6744 65.8262 86.6207 65.6699 86.5817C65.5723 86.5035 65.4795 86.4205 65.3916 86.3326C65.3135 86.235 65.2109 86.1862 65.084 86.1862C65.0547 86.1862 65.001 86.1959 64.9229 86.2155C64.9033 86.0397 64.8301 85.9176 64.7031 85.8492C64.5762 85.7711 64.4395 85.7028 64.293 85.6442C64.1953 85.3903 64.0635 85.1656 63.8975 84.9703C63.7314 84.775 63.5508 84.5944 63.3555 84.4283C63.375 84.3698 63.3848 84.3258 63.3848 84.2965C63.3848 84.1989 63.3604 84.1158 63.3115 84.0475C63.2627 83.9694 63.209 83.9059 63.1504 83.8571C63.0137 83.4176 62.9453 82.9879 62.9453 82.568C62.9453 81.9821 63.0771 81.4401 63.3408 80.942C63.5947 80.4342 64 80.0533 64.5566 79.7994C64.5664 79.7213 64.5908 79.653 64.6299 79.5944C64.6787 79.5358 64.708 79.4674 64.7178 79.3893C64.8057 79.3893 64.874 79.3698 64.9229 79.3307C64.9717 79.2916 65.0156 79.2526 65.0547 79.2135C65.1035 79.1647 65.1523 79.1207 65.2012 79.0817C65.25 79.0426 65.3135 79.0182 65.3916 79.0084C65.7627 78.6862 66.1582 78.4274 66.5781 78.2321C66.998 78.027 67.4277 77.817 67.8672 77.6022C67.9551 77.5631 68.0283 77.4899 68.0869 77.3824H68.1748C68.2725 77.3824 68.3457 77.3629 68.3945 77.3239C68.4531 77.275 68.5361 77.2604 68.6436 77.2799C68.6826 77.2213 68.7314 77.1823 68.79 77.1627C68.8584 77.1432 68.9219 77.1285 68.9805 77.1188C69.0488 77.0992 69.1123 77.0748 69.1709 77.0455C69.2295 77.0162 69.2686 76.9723 69.2881 76.9137H69.3906C69.5566 76.9137 69.7178 76.8893 69.874 76.8405C70.0303 76.7819 70.1865 76.7184 70.3428 76.65H70.4453C70.6406 76.65 70.8213 76.6158 70.9873 76.5475C71.1631 76.4694 71.3486 76.4156 71.5439 76.3864C71.6221 76.3668 71.7002 76.3619 71.7783 76.3717C71.8564 76.3815 71.9346 76.3864 72.0127 76.3864C72.0615 76.3864 72.1201 76.3815 72.1885 76.3717C72.2568 76.3619 72.3057 76.3326 72.335 76.2838H72.3643C72.4229 76.2838 72.457 76.3033 72.4668 76.3424C72.4766 76.3815 72.5059 76.401 72.5547 76.401C72.623 76.401 72.6914 76.3912 72.7598 76.3717C72.8281 76.3522 72.8965 76.3424 72.9648 76.3424C73.2578 76.3424 73.5459 76.3717 73.8291 76.4303C74.1221 76.4889 74.4102 76.5426 74.6934 76.5914C74.7129 76.7086 74.7617 76.7916 74.8398 76.8405C74.9277 76.8893 75.0205 76.9332 75.1182 76.9723V77.0309C75.1182 77.109 75.1377 77.1725 75.1768 77.2213C75.1377 77.358 75.0693 77.4606 74.9717 77.5289C74.874 77.5973 74.7666 77.6559 74.6494 77.7047C74.6982 77.7438 74.7275 77.7975 74.7373 77.8658C74.7471 77.9342 74.752 77.9977 74.752 78.0563V78.2321L74.6787 78.2174C74.5225 78.2174 74.4443 78.2906 74.4443 78.4371C74.3174 78.359 74.1758 78.3102 74.0195 78.2906C73.873 78.2711 73.7266 78.2614 73.5801 78.2614C73.3848 78.2614 73.1797 78.2711 72.9648 78.2906C72.75 78.3004 72.54 78.2955 72.335 78.276C72.2568 78.3737 72.1592 78.4469 72.042 78.4957C71.9248 78.5348 71.8076 78.5543 71.6904 78.5543C71.5635 78.5543 71.4414 78.5299 71.3242 78.4811C71.207 78.4225 71.124 78.3395 71.0752 78.2321C71.0264 78.2125 70.9824 78.2028 70.9434 78.2028H70.8115C70.6553 78.2028 70.499 78.2223 70.3428 78.2614C70.1963 78.2906 70.0449 78.3297 69.8887 78.3785C69.7324 78.4176 69.5762 78.4615 69.4199 78.5104C69.2734 78.5494 69.1221 78.5739 68.9658 78.5836C68.9072 78.6617 68.8291 78.7155 68.7314 78.7448C68.6338 78.774 68.5557 78.8278 68.4971 78.9059C68.292 78.9449 68.1064 79.0133 67.9404 79.111C67.7744 79.1989 67.6133 79.2965 67.457 79.4039L67.0029 79.7115C66.8564 79.8092 66.6904 79.8922 66.5049 79.9606C66.3682 80.1071 66.2412 80.2242 66.124 80.3121C66.0068 80.4 65.8555 80.4781 65.6699 80.5465C65.5527 80.5856 65.4844 80.6442 65.4648 80.7223C65.4551 80.8004 65.416 80.8785 65.3477 80.9567C65.2891 81.025 65.2158 81.0787 65.1279 81.1178C65.0498 81.1471 64.9814 81.2008 64.9229 81.2789C64.874 81.3473 64.835 81.4303 64.8057 81.528C64.7861 81.6158 64.7617 81.7037 64.7324 81.7916C64.7031 81.8795 64.6689 81.9674 64.6299 82.0553C64.5908 82.1334 64.5322 82.2018 64.4541 82.2604C64.4541 82.2994 64.4492 82.3385 64.4395 82.3776C64.4395 82.4166 64.4395 82.4508 64.4395 82.4801C64.4395 82.6168 64.4541 82.7584 64.4834 82.9049C64.5225 83.0416 64.5469 83.1783 64.5566 83.3151C64.752 83.6569 64.9814 83.9694 65.2451 84.2526C65.5088 84.526 65.792 84.7799 66.0947 85.0143C66.3975 85.2487 66.71 85.4684 67.0322 85.6735C67.3643 85.8785 67.6914 86.0787 68.0137 86.274C68.1309 86.2643 68.2383 86.2789 68.3359 86.318C68.4336 86.3473 68.5361 86.3668 68.6436 86.3766C68.7607 86.4645 68.8975 86.5328 69.0537 86.5817L69.5225 86.7281C69.6787 86.777 69.8301 86.8356 69.9766 86.9039C70.123 86.9625 70.2451 87.0455 70.3428 87.153C70.3916 87.1627 70.4355 87.1774 70.4746 87.1969C70.5137 87.2067 70.5576 87.2115 70.6064 87.2115C70.665 87.2115 70.6992 87.192 70.709 87.153C71.1484 87.319 71.5781 87.5045 71.998 87.7096C72.418 87.9049 72.8623 88.0563 73.3311 88.1637C73.5166 88.3199 73.7217 88.4567 73.9463 88.5739C74.1709 88.691 74.3955 88.8131 74.6201 88.9401C74.8447 89.0573 75.0596 89.1891 75.2646 89.3356C75.4697 89.4723 75.6504 89.6383 75.8066 89.8336C75.8262 90.0192 75.8652 90.1998 75.9238 90.3756C75.9922 90.5416 76.0264 90.7223 76.0264 90.9176ZM86.0898 82.1432V82.2018C86.0215 82.2213 85.9873 82.2701 85.9873 82.3483C85.8799 82.3971 85.7676 82.4362 85.6504 82.4655C85.5332 82.485 85.4209 82.5192 85.3135 82.568C85.2061 82.5582 85.0938 82.5533 84.9766 82.5533C84.8691 82.5436 84.7617 82.5387 84.6543 82.5387C84.3613 82.5387 84.0684 82.5485 83.7754 82.568C83.4824 82.5875 83.1895 82.5875 82.8965 82.568C82.7598 82.6461 82.6084 82.7096 82.4424 82.7584C82.2861 82.7975 82.1348 82.817 81.9883 82.817C81.8711 82.817 81.7686 82.8024 81.6807 82.7731C81.4463 82.8903 81.1875 82.9879 80.9043 83.066C80.6309 83.1442 80.3525 83.2223 80.0693 83.3004C79.7861 83.3688 79.5127 83.4518 79.249 83.5494C78.9951 83.6373 78.7705 83.7643 78.5752 83.9303C78.5557 84.067 78.541 84.2037 78.5312 84.3405C78.5215 84.4674 78.5166 84.5944 78.5166 84.7213C78.5166 84.858 78.5215 84.985 78.5312 85.1022C78.5508 85.2194 78.585 85.3365 78.6338 85.4537C78.6826 85.4733 78.7363 85.4879 78.7949 85.4977C78.8633 85.5074 78.9219 85.5123 78.9707 85.5123C79.0195 85.5123 79.0684 85.5074 79.1172 85.4977C79.166 85.4781 79.2002 85.444 79.2197 85.3951C79.3662 85.3756 79.5127 85.3707 79.6592 85.3805C79.8057 85.3805 79.9521 85.3805 80.0986 85.3805C80.2451 85.3805 80.3867 85.3756 80.5234 85.3658C80.6699 85.3561 80.8115 85.3317 80.9482 85.2926C81.1045 85.2535 81.2559 85.2291 81.4023 85.2194C81.5586 85.2096 81.71 85.1998 81.8564 85.1901C82.0029 85.1803 82.1543 85.1656 82.3105 85.1461C82.4668 85.1168 82.6279 85.0631 82.7939 84.985C82.9209 85.0338 83.0479 85.0582 83.1748 85.0582C83.3115 85.0582 83.4434 85.068 83.5703 85.0875C83.6387 85.1364 83.6924 85.1901 83.7314 85.2487C83.7803 85.3073 83.8047 85.3756 83.8047 85.4537C83.8047 85.5905 83.7559 85.7272 83.6582 85.8639C83.5605 86.0006 83.4824 86.1276 83.4238 86.2448H83.2627C83.0283 86.2448 82.7988 86.2789 82.5742 86.3473C82.3594 86.4059 82.1396 86.4791 81.915 86.567C81.7002 86.6451 81.4805 86.7184 81.2559 86.7867C81.041 86.8453 80.8164 86.8746 80.582 86.8746C80.543 86.8746 80.5186 86.899 80.5088 86.9479C80.5088 86.9869 80.499 87.0162 80.4795 87.0358C80.4307 87.026 80.3574 87.0211 80.2598 87.0211C80.0352 87.0211 79.8203 87.0455 79.6152 87.0944C79.4102 87.1432 79.2002 87.1676 78.9854 87.1676C78.9268 87.1676 78.8682 87.1676 78.8096 87.1676C78.751 87.1578 78.6924 87.1481 78.6338 87.1383C78.585 87.2164 78.5215 87.2701 78.4434 87.2994C78.3652 87.319 78.292 87.358 78.2236 87.4166C78.1943 87.5045 78.1748 87.6119 78.165 87.7389C78.165 87.8658 78.1602 87.9977 78.1504 88.1344C78.1504 88.2614 78.1406 88.3834 78.1211 88.5006C78.1016 88.6178 78.0625 88.7106 78.0039 88.7789C78.0137 88.8278 78.0527 88.8473 78.1211 88.8375C78.1895 88.818 78.2236 88.8473 78.2236 88.9254C78.2236 89.0133 78.2139 89.1061 78.1943 89.2037C78.1748 89.3014 78.165 89.399 78.165 89.4967C78.165 89.6823 78.1846 89.8873 78.2236 90.1119C78.2725 90.3268 78.3408 90.527 78.4287 90.7125C78.5264 90.8981 78.6533 91.0543 78.8096 91.1813C78.9658 91.2985 79.1611 91.3571 79.3955 91.3571C79.5518 91.3571 79.6982 91.3278 79.835 91.2692C79.9717 91.2106 80.084 91.1129 80.1719 90.9762L80.2451 90.9615C80.2842 90.9615 80.3184 90.9664 80.3477 90.9762C80.3867 90.986 80.4258 90.9908 80.4648 90.9908C80.5234 90.9908 80.5967 90.9567 80.6846 90.8883C80.7822 90.8102 80.8848 90.7223 80.9922 90.6246C81.1094 90.527 81.2266 90.4342 81.3438 90.3463C81.4609 90.2487 81.5732 90.1803 81.6807 90.1412C81.749 90.0045 81.8125 89.8678 81.8711 89.7311C81.9395 89.5944 82.0371 89.4869 82.1641 89.4088V88.984C82.2617 88.8766 82.3643 88.7789 82.4717 88.691C82.5889 88.6031 82.6768 88.4908 82.7354 88.3541C82.7842 88.3737 82.8281 88.3883 82.8672 88.3981C82.916 88.4078 82.9648 88.4127 83.0137 88.4127C83.0625 88.4127 83.1113 88.4078 83.1602 88.3981C83.2188 88.3883 83.2725 88.3737 83.3213 88.3541C83.3994 88.4615 83.458 88.5836 83.4971 88.7203C83.5459 88.8473 83.6045 88.9694 83.6729 89.0865C83.585 89.2623 83.4824 89.4723 83.3652 89.7164C83.248 89.9606 83.1211 90.2047 82.9844 90.4489C82.8477 90.693 82.7012 90.9274 82.5449 91.152C82.3984 91.3668 82.252 91.5328 82.1055 91.65C82.0762 91.6793 82.0127 91.7135 81.915 91.7526C81.8076 91.8307 81.71 91.9039 81.6221 91.9723C81.5342 92.0504 81.4512 92.1383 81.373 92.236C81.0898 92.3239 80.8164 92.441 80.5527 92.5875C80.2988 92.734 80.0449 92.8756 79.791 93.0123C79.6738 92.983 79.5469 92.9684 79.4102 92.9684C79.293 92.9684 79.1758 92.9733 79.0586 92.983C78.9414 93.0026 78.8145 93.0123 78.6777 93.0123C78.6387 92.9635 78.5801 92.9293 78.502 92.9098C78.4336 92.9 78.4092 92.8512 78.4287 92.7633C78.0967 92.7438 77.8281 92.651 77.623 92.485C77.418 92.3287 77.2422 92.1334 77.0957 91.899C76.959 91.6647 76.8467 91.4108 76.7588 91.1373C76.6709 90.8639 76.5781 90.6002 76.4805 90.3463V90.3024C76.4805 90.2535 76.5 90.2242 76.5391 90.2145C76.5781 90.2047 76.5977 90.1754 76.5977 90.1266C76.5977 90.1071 76.5928 90.0924 76.583 90.0826C76.5537 89.9752 76.5293 89.8824 76.5098 89.8043C76.4902 89.7262 76.4805 89.6334 76.4805 89.526C76.4805 89.3698 76.4902 89.2184 76.5098 89.0719C76.5293 88.9156 76.5391 88.7594 76.5391 88.6031C76.5391 88.4469 76.5195 88.3102 76.4805 88.193C76.5195 88.1442 76.5537 88.0807 76.583 88.0026C76.6025 87.9147 76.6172 87.8268 76.627 87.7389C76.6367 87.651 76.6416 87.5631 76.6416 87.4752C76.6514 87.3873 76.666 87.3092 76.6855 87.2408C76.6465 87.1334 76.6123 87.0406 76.583 86.9625C76.5537 86.8746 76.5391 86.7721 76.5391 86.6549V86.5524C76.6367 86.3864 76.7197 86.2155 76.7881 86.0397C76.8564 85.8639 76.9297 85.6832 77.0078 85.4977V85.4537C77.0078 85.1705 76.998 84.8873 76.9785 84.6041C76.959 84.3209 76.9492 84.0377 76.9492 83.7545V83.4762C76.9492 83.3785 76.9541 83.2858 76.9639 83.1979C77.042 83.1588 77.1006 83.1051 77.1396 83.0367C77.1787 82.9684 77.2373 82.9147 77.3154 82.8756H77.7988L77.8867 82.7291C77.916 82.6803 77.9355 82.6266 77.9453 82.568C78.0527 82.5387 78.1553 82.4996 78.2529 82.4508C78.3604 82.3922 78.458 82.3336 78.5459 82.275C78.6826 82.1969 78.8047 82.1285 78.9121 82.0699C79.0293 82.0016 79.1416 81.9479 79.249 81.9088C79.3662 81.86 79.4883 81.8209 79.6152 81.7916C79.7422 81.7623 79.8887 81.7379 80.0547 81.7184C80.1328 81.7184 80.1816 81.7037 80.2012 81.6744C80.2305 81.6451 80.2695 81.611 80.3184 81.5719C80.4355 81.5914 80.5527 81.611 80.6699 81.6305C80.7871 81.6403 80.9043 81.6451 81.0215 81.6451C81.2559 81.6451 81.4756 81.6012 81.6807 81.5133C81.9736 81.5133 82.2617 81.5084 82.5449 81.4987C82.8379 81.4889 83.1309 81.484 83.4238 81.484C83.6777 81.484 83.9316 81.4938 84.1855 81.5133C84.4395 81.5328 84.6885 81.567 84.9326 81.6158C85.0205 81.5865 85.1182 81.5719 85.2256 81.5719C85.3428 81.5719 85.46 81.5865 85.5771 81.6158C85.7041 81.6354 85.8262 81.6354 85.9434 81.6158C85.9531 81.7233 85.9775 81.816 86.0166 81.8942C86.0654 81.9625 86.0898 82.0455 86.0898 82.1432ZM96.2852 90.3903C96.2559 90.527 96.1924 90.6393 96.0947 90.7272C96.0068 90.8053 95.8994 90.8688 95.7725 90.9176C95.6455 90.9664 95.5137 91.0006 95.377 91.0201C95.25 91.0299 95.1328 91.0348 95.0254 91.0348C94.9766 91.0348 94.9277 91.0348 94.8789 91.0348C94.8398 91.025 94.7959 91.0201 94.7471 91.0201C94.6982 91.0201 94.6738 91.0446 94.6738 91.0934C94.6738 91.1422 94.6494 91.1764 94.6006 91.1959C94.5518 91.1764 94.5029 91.1617 94.4541 91.152C94.4053 91.1422 94.3564 91.1373 94.3076 91.1373C94.2393 91.1373 94.1709 91.1422 94.1025 91.152C94.0439 91.1617 93.9854 91.1666 93.9268 91.1666C93.8486 91.1666 93.79 91.1569 93.751 91.1373C93.7217 91.1178 93.6924 91.0983 93.6631 91.0787C93.6436 91.0494 93.6191 91.0201 93.5898 90.9908C93.5703 90.9615 93.5361 90.9371 93.4873 90.9176C93.4189 90.8883 93.3604 90.8834 93.3115 90.903C93.2725 90.9225 93.209 90.8932 93.1211 90.8151C93.0039 90.7174 92.9014 90.6002 92.8135 90.4635C92.7354 90.317 92.6572 90.1656 92.5791 90.0094C92.501 89.8531 92.418 89.6969 92.3301 89.5406C92.2422 89.3844 92.1396 89.2477 92.0225 89.1305H91.9053C91.7295 89.1305 91.6074 89.2037 91.5391 89.3502C91.4902 89.3209 91.4414 89.2867 91.3926 89.2477C91.3438 89.1989 91.29 89.1598 91.2314 89.1305C91.0068 89.1989 90.7725 89.2574 90.5283 89.3063C90.2842 89.3551 90.04 89.3795 89.7959 89.3795H89.5908C89.5322 89.3795 89.4688 89.3698 89.4004 89.3502C89.3027 89.3893 89.2148 89.4381 89.1367 89.4967C89.0586 89.5455 88.9707 89.5699 88.873 89.5699C88.8145 89.5699 88.7461 89.5504 88.668 89.5114C88.6094 89.5114 88.5801 89.5358 88.5801 89.5846C88.5898 89.6334 88.5605 89.6578 88.4922 89.6578H88.3604C88.2236 89.6578 88.0869 89.6627 87.9502 89.6725C87.8232 89.6823 87.6914 89.6871 87.5547 89.6871C87.3691 89.6871 87.1787 89.6627 86.9834 89.6139C86.9346 89.6432 86.8809 89.6578 86.8223 89.6578C86.7832 89.6774 86.7539 89.7115 86.7344 89.7604C86.7148 89.7994 86.6953 89.8385 86.6758 89.8776C86.6562 89.9069 86.627 89.9362 86.5879 89.9655C86.5586 89.985 86.5146 89.9899 86.4561 89.9801C86.4365 90.0973 86.3877 90.1901 86.3096 90.2584C86.2314 90.3268 86.1924 90.4293 86.1924 90.566C86.085 90.6246 85.9971 90.6979 85.9287 90.7858C85.8604 90.8737 85.792 90.9664 85.7236 91.0641C85.6553 91.1617 85.582 91.2545 85.5039 91.3424C85.4355 91.4303 85.3477 91.4987 85.2402 91.5475C85.1914 91.6061 85.1768 91.6989 85.1963 91.8258C85.0889 91.9137 84.957 91.9918 84.8008 92.0602C84.6445 92.1285 84.498 92.1627 84.3613 92.1627C84.0781 92.1627 83.8828 92.0114 83.7754 91.7086C83.7754 91.611 83.7852 91.5084 83.8047 91.401C83.8145 91.2838 83.834 91.1764 83.8633 91.0787C83.8926 90.9713 83.9365 90.8785 83.9951 90.8004C84.0537 90.7125 84.1367 90.649 84.2441 90.61C84.2441 90.5221 84.2148 90.4635 84.1562 90.4342C84.0977 90.3951 84.0732 90.3317 84.083 90.2438C84.3467 90.1168 84.5762 89.9508 84.7715 89.7457C84.9668 89.5406 85.1426 89.3258 85.2988 89.1012C85.4648 88.8668 85.6309 88.6324 85.7969 88.3981C85.9629 88.1637 86.1484 87.9537 86.3535 87.7682V87.4606C86.6465 87.1481 86.8369 86.7965 86.9248 86.4059C87.0322 86.3864 87.1006 86.3375 87.1299 86.2594C87.1689 86.1813 87.1885 86.0885 87.1885 85.9811C87.2373 85.9811 87.2666 85.9615 87.2764 85.9225C87.2959 85.8737 87.3398 85.859 87.4082 85.8785C87.4961 85.6442 87.5938 85.4293 87.7012 85.234C87.8086 85.0387 87.916 84.8434 88.0234 84.6481C88.1309 84.443 88.2236 84.233 88.3018 84.0182C88.3896 83.8033 88.4531 83.5641 88.4922 83.3004C88.6289 83.2906 88.7021 83.2272 88.7119 83.11C88.7314 82.983 88.751 82.8707 88.7705 82.7731C88.917 82.6364 89.0244 82.4752 89.0928 82.2897C89.1709 82.1041 89.2393 81.9137 89.2979 81.7184C89.3564 81.5133 89.4199 81.3131 89.4883 81.1178C89.5664 80.9127 89.6738 80.7321 89.8105 80.5758V80.5319C89.8105 80.483 89.791 80.4537 89.752 80.444C89.7129 80.4244 89.6934 80.3903 89.6934 80.3414C89.7031 80.3317 89.708 80.3219 89.708 80.3121C89.8252 80.2633 89.9131 80.1852 89.9717 80.0778C90.0303 79.9606 90.1182 79.8776 90.2354 79.8287C90.4404 79.9948 90.6211 80.0973 90.7773 80.1364C90.9336 80.1656 91.1387 80.1901 91.3926 80.2096C91.5195 80.3463 91.5879 80.5123 91.5977 80.7076C91.6172 80.8932 91.6514 81.0787 91.7002 81.2643C91.7783 81.5768 91.8613 81.8844 91.9492 82.1871C92.0469 82.4801 92.1201 82.7828 92.1689 83.0953C92.1982 83.2809 92.252 83.4567 92.3301 83.6227C92.4082 83.7887 92.4619 83.9596 92.4912 84.1354C92.5107 84.2721 92.5107 84.4283 92.4912 84.6041C92.4717 84.7701 92.4912 84.9166 92.5498 85.0436L92.6523 85.278C92.7012 85.3854 92.7402 85.4977 92.7695 85.6149C92.8086 85.7321 92.8428 85.8492 92.8721 85.9664C92.9502 86.2594 93.0186 86.5768 93.0771 86.9186C93.1455 87.2506 93.248 87.5533 93.3848 87.8268C93.4336 87.9244 93.5068 87.9928 93.6045 88.0319C93.7119 88.0709 93.8291 88.1002 93.9561 88.1198C94.083 88.1295 94.2051 88.1344 94.3223 88.1344C94.4492 88.1246 94.5566 88.1198 94.6445 88.1198H94.791C94.8496 88.1198 94.9082 88.1295 94.9668 88.149C95.0059 88.2272 95.0254 88.2955 95.0254 88.3541C95.0254 88.4713 94.9863 88.5641 94.9082 88.6324C94.8301 88.7008 94.791 88.7789 94.791 88.8668C94.791 88.9156 94.8105 88.9694 94.8496 89.028C94.8105 89.0182 94.752 89.0133 94.6738 89.0133C94.4492 89.0133 94.2295 89.0524 94.0146 89.1305C94.0928 89.2965 94.1953 89.4381 94.3223 89.5553C94.459 89.6627 94.6006 89.7653 94.7471 89.8629C94.8447 89.7848 94.9473 89.7457 95.0547 89.7457C95.1719 89.7457 95.2793 89.775 95.377 89.8336C95.4844 89.8824 95.5967 89.9069 95.7139 89.9069C95.8018 89.9069 95.8652 89.8922 95.9043 89.8629C95.9824 89.9508 96.0459 90.0436 96.0947 90.1412C96.1436 90.2291 96.207 90.3121 96.2852 90.3903ZM91.7002 88.0465C91.6807 87.8805 91.6465 87.7633 91.5977 87.6949C91.5586 87.6168 91.5244 87.524 91.4951 87.4166C91.4561 87.2799 91.4268 87.1334 91.4072 86.9772C91.3975 86.8209 91.3779 86.6696 91.3486 86.5231C91.2803 86.191 91.2021 85.859 91.1143 85.527C91.0361 85.1949 90.9336 84.8727 90.8066 84.5602C90.8457 84.5016 90.8652 84.4479 90.8652 84.399V84.3551C90.7773 84.2574 90.7139 84.1403 90.6748 84.0035C90.6357 83.8571 90.5967 83.7155 90.5576 83.5787C90.5283 83.4323 90.4844 83.3004 90.4258 83.1832C90.377 83.0563 90.2939 82.9537 90.1768 82.8756C90.1475 82.9342 90.1328 83.0026 90.1328 83.0807C90.1328 83.149 90.1377 83.2125 90.1475 83.2711C90.167 83.3297 90.1768 83.3932 90.1768 83.4615C90.0791 83.5104 90.0059 83.5885 89.957 83.6959C89.918 83.7936 89.8496 83.8717 89.752 83.9303C89.6738 84.2428 89.5615 84.5406 89.415 84.8239C89.2686 85.0973 89.1123 85.3707 88.9463 85.6442C88.79 85.9176 88.6387 86.1959 88.4922 86.4791C88.3457 86.7526 88.2285 87.0406 88.1406 87.3434C88.0137 87.4313 87.9258 87.5436 87.877 87.6803C87.8379 87.817 87.8184 87.9537 87.8184 88.0905C87.9062 88.1393 88.0039 88.1686 88.1113 88.1783C88.2285 88.1783 88.3408 88.1783 88.4482 88.1783C88.5557 88.1783 88.6582 88.1881 88.7559 88.2076C88.8535 88.2272 88.9414 88.276 89.0195 88.3541C89.1465 88.3151 89.2832 88.2906 89.4297 88.2809C89.5859 88.2614 89.7129 88.2174 89.8105 88.149C90.0059 88.2174 90.2158 88.2516 90.4404 88.2516C90.5576 88.2516 90.6699 88.2418 90.7773 88.2223C90.8945 88.2028 91.0068 88.1783 91.1143 88.149C91.2021 88.1686 91.2705 88.2028 91.3193 88.2516C91.3682 88.2906 91.4414 88.3053 91.5391 88.2955C91.5879 88.2565 91.6172 88.2174 91.627 88.1783C91.6367 88.1295 91.6611 88.0856 91.7002 88.0465ZM114.61 88.9108C114.591 89.0573 114.537 89.1696 114.449 89.2477C114.371 89.3258 114.278 89.399 114.171 89.4674C114.122 89.4576 114.073 89.4528 114.024 89.4528C113.985 89.443 113.941 89.4381 113.893 89.4381C113.59 89.4283 113.302 89.4674 113.028 89.5553C112.765 89.6432 112.491 89.7067 112.208 89.7457C112.11 89.7653 112.018 89.775 111.93 89.775C111.852 89.7653 111.769 89.7701 111.681 89.7897C111.368 89.8385 111.036 89.8776 110.685 89.9069C110.333 89.9362 109.981 89.9752 109.63 90.024C109.278 90.0631 108.932 90.1168 108.59 90.1852C108.258 90.2438 107.945 90.3317 107.652 90.4489C107.623 90.4293 107.594 90.4098 107.564 90.3903C107.535 90.361 107.501 90.3463 107.462 90.3463C107.364 90.3463 107.271 90.361 107.184 90.3903C107.096 90.4196 107.008 90.4293 106.92 90.4196C106.822 90.4781 106.715 90.5221 106.598 90.5514C106.49 90.5709 106.378 90.5905 106.261 90.61C106.153 90.6198 106.046 90.6393 105.938 90.6686C105.831 90.6979 105.729 90.7516 105.631 90.8297C105.553 90.7906 105.455 90.7711 105.338 90.7711C105.23 90.7614 105.157 90.7223 105.118 90.6539C104.894 90.7614 104.654 90.8297 104.4 90.859C104.156 90.8883 103.907 90.8981 103.653 90.8883C103.487 90.8785 103.297 90.8541 103.082 90.8151C102.867 90.776 102.652 90.7223 102.438 90.6539C102.223 90.5758 102.022 90.4879 101.837 90.3903C101.651 90.2828 101.51 90.1559 101.412 90.0094C101.344 89.9117 101.295 89.8043 101.266 89.6871C101.236 89.5699 101.168 89.4821 101.061 89.4235C101.09 89.1989 101.124 88.9791 101.163 88.7643C101.202 88.5494 101.241 88.3297 101.28 88.1051C101.476 87.9391 101.661 87.7633 101.837 87.5778C102.013 87.3922 102.179 87.1969 102.335 86.9918C102.521 86.9039 102.691 86.7965 102.848 86.6696C103.014 86.5426 103.175 86.4156 103.331 86.2887C103.497 86.152 103.658 86.0201 103.814 85.8932C103.98 85.7662 104.156 85.6539 104.342 85.5563C104.371 85.4879 104.41 85.4342 104.459 85.3951C104.518 85.3463 104.576 85.3024 104.635 85.2633C104.693 85.2145 104.747 85.1656 104.796 85.1168C104.845 85.0582 104.879 84.9899 104.898 84.9117C105.24 84.7067 105.538 84.4479 105.792 84.1354C106.046 83.8229 106.212 83.4713 106.29 83.0807C106.124 82.944 105.934 82.8561 105.719 82.817C105.514 82.7682 105.299 82.734 105.074 82.7145C104.879 82.7047 104.674 82.7047 104.459 82.7145C104.254 82.7242 104.044 82.7194 103.829 82.6998C103.614 82.7682 103.39 82.8121 103.155 82.8317C102.931 82.8512 102.706 82.8707 102.481 82.8903C102.257 82.9 102.032 82.9293 101.808 82.9781C101.593 83.0172 101.383 83.0953 101.178 83.2125C101.139 83.2125 101.1 83.2076 101.061 83.1979C101.031 83.1881 100.997 83.1832 100.958 83.1832C100.646 83.1735 100.353 83.2369 100.079 83.3737C99.8057 83.5006 99.5371 83.6276 99.2734 83.7545C99.2539 83.7936 99.2441 83.8229 99.2441 83.8424C99.2441 83.901 99.2539 83.9596 99.2734 84.0182C99.3027 84.067 99.3174 84.1207 99.3174 84.1793C99.3076 84.1891 99.3027 84.1989 99.3027 84.2086C99.3027 84.2184 99.2979 84.2281 99.2881 84.2379C99.2783 84.2867 99.2637 84.3307 99.2441 84.3698C99.2344 84.4088 99.2197 84.4528 99.2002 84.5016C99.0928 84.8141 99.0342 85.1217 99.0244 85.4244C99.0146 85.6783 99.0146 85.9274 99.0244 86.1715C99.0342 86.4156 99.0342 86.6647 99.0244 86.9186C99.0049 87.2311 98.9561 87.524 98.8779 87.7975C98.9268 88.0319 98.9707 88.2809 99.0098 88.5446C99.0488 88.7985 99.0977 89.0524 99.1562 89.3063C99.2148 89.5602 99.2832 89.8092 99.3613 90.0533C99.4492 90.2877 99.5615 90.5123 99.6982 90.7272C99.6885 90.7467 99.6934 90.7614 99.7129 90.7711C99.7324 90.7809 99.752 90.7858 99.7715 90.7858H99.8887C99.9375 90.7858 99.957 90.8053 99.9473 90.8444C99.9668 90.8737 99.9814 90.903 99.9912 90.9323C100.001 90.9518 100.021 90.9713 100.05 90.9908C100.069 91.0201 100.069 91.0592 100.05 91.108C100.04 91.3033 99.9912 91.484 99.9033 91.65C99.8154 91.816 99.7617 91.9967 99.7422 92.192C99.625 92.2213 99.5176 92.236 99.4199 92.236C99.2539 92.2262 99.1074 92.1774 98.9805 92.0895C98.8535 92.0114 98.7363 91.9137 98.6289 91.7965C98.5215 91.6793 98.4189 91.5621 98.3213 91.4449C98.2236 91.318 98.1162 91.2106 97.999 91.1227C97.9307 90.8492 97.8623 90.5465 97.7939 90.2145C97.7354 89.8824 97.6328 89.5992 97.4863 89.3649C97.5254 89.277 97.5449 89.1696 97.5449 89.0426C97.5547 88.8473 97.5352 88.6569 97.4863 88.4713C97.4473 88.276 97.4375 88.0807 97.457 87.8854C97.457 87.778 97.4668 87.6705 97.4863 87.5631C97.5156 87.4557 97.5352 87.3483 97.5449 87.2408C97.5547 87.0748 97.5352 86.9137 97.4863 86.7574C97.4473 86.6012 97.4326 86.4401 97.4424 86.274C97.4521 86.1959 97.4668 86.1227 97.4863 86.0543C97.5156 85.9762 97.5547 85.9078 97.6035 85.8492C97.5547 85.7321 97.54 85.6198 97.5596 85.5123C97.5693 85.3463 97.5889 85.1901 97.6182 85.0436C97.6475 84.8971 97.667 84.7506 97.6768 84.6041C97.6768 84.526 97.6719 84.4528 97.6621 84.3844C97.6523 84.3063 97.6377 84.233 97.6182 84.1647L97.4863 84.1207C97.4277 84.1207 97.3691 84.1354 97.3105 84.1647C97.2617 84.194 97.2178 84.2281 97.1787 84.2672C97.1396 84.3063 97.1055 84.3405 97.0762 84.3698C97.0469 84.3893 97.0176 84.399 96.9883 84.399C96.9688 84.399 96.9443 84.399 96.915 84.399C96.8955 84.3893 96.876 84.3844 96.8564 84.3844C96.8369 84.3844 96.7979 84.4039 96.7393 84.443C96.6904 84.4821 96.627 84.526 96.5488 84.5748C96.4805 84.6139 96.4121 84.6578 96.3438 84.7067C96.2754 84.7457 96.2217 84.7701 96.1826 84.7799C96.0752 84.7604 95.9873 84.7262 95.9189 84.6774C95.8604 84.6188 95.8018 84.5651 95.7432 84.5162C95.6943 84.4576 95.6406 84.4088 95.582 84.3698C95.5234 84.3209 95.4502 84.3014 95.3623 84.3112C95.333 84.2526 95.3184 84.1891 95.3184 84.1207C95.3086 84.0524 95.3086 83.984 95.3184 83.9156V83.6813C95.3867 83.5543 95.4795 83.4518 95.5967 83.3737C95.7041 83.2858 95.8213 83.2125 95.9482 83.1539L96.3291 82.9781C96.4561 82.9196 96.5732 82.8463 96.6807 82.7584H96.8125C96.9883 82.7682 97.1396 82.734 97.2666 82.6559C97.4033 82.5778 97.5303 82.4899 97.6475 82.3922C97.7646 82.2848 97.8818 82.1774 97.999 82.0699C98.126 81.9625 98.2627 81.8795 98.4092 81.8209C98.5166 81.8698 98.6289 81.9137 98.7461 81.9528C98.8633 81.9821 98.9854 82.0016 99.1123 82.0114C99.2393 82.0114 99.3711 81.9918 99.5078 81.9528C99.6445 81.9137 99.752 81.8405 99.8301 81.733C99.8789 81.7526 99.918 81.7672 99.9473 81.777C99.9863 81.777 100.03 81.777 100.079 81.777C100.226 81.7867 100.372 81.7672 100.519 81.7184C100.665 81.6598 100.807 81.5914 100.943 81.5133C101.139 81.5231 101.329 81.5133 101.515 81.484C101.71 81.4449 101.9 81.4059 102.086 81.3668C102.281 81.3278 102.472 81.2936 102.657 81.2643C102.853 81.2252 103.048 81.2106 103.243 81.2203C103.565 81.2301 103.883 81.2008 104.195 81.1324C104.508 81.0641 104.825 81.0397 105.147 81.0592C105.372 81.069 105.592 81.0885 105.807 81.1178C106.031 81.1373 106.256 81.1422 106.48 81.1324C106.607 81.191 106.72 81.2448 106.817 81.2936C106.925 81.3326 107.057 81.3424 107.213 81.3229C107.525 81.5865 107.809 81.8942 108.062 82.2457V82.4948C108.053 82.7194 108.014 82.9391 107.945 83.1539C107.877 83.3688 107.794 83.5836 107.696 83.7985C107.608 84.0035 107.511 84.2086 107.403 84.4137C107.296 84.609 107.193 84.8043 107.096 84.9996C106.461 85.5758 105.826 86.1471 105.191 86.7135C104.557 87.2799 103.902 87.8268 103.229 88.3541C103.209 88.4518 103.18 88.5397 103.141 88.6178C103.111 88.6959 103.092 88.7789 103.082 88.8668C103.082 88.9156 103.087 88.9547 103.097 88.984C103.165 89.0035 103.224 89.0426 103.272 89.1012C103.331 89.15 103.351 89.2184 103.331 89.3063H103.463C103.512 89.3063 103.536 89.3258 103.536 89.3649L103.771 89.3795C104.142 89.399 104.513 89.3893 104.884 89.3502C105.255 89.3112 105.626 89.2672 105.997 89.2184C106.378 89.1696 106.754 89.1256 107.125 89.0865C107.496 89.0377 107.867 89.0084 108.238 88.9987C108.326 88.9694 108.419 88.9449 108.517 88.9254C108.614 88.9059 108.702 88.8668 108.78 88.8082H108.824C108.893 88.8082 108.941 88.8278 108.971 88.8668C109.01 88.9059 109.063 88.9303 109.132 88.9401C109.181 88.9401 109.229 88.9303 109.278 88.9108C109.337 88.8912 109.396 88.8766 109.454 88.8668C109.591 88.8278 109.732 88.8033 109.879 88.7936C110.035 88.7838 110.187 88.7692 110.333 88.7496C110.899 88.7008 111.461 88.6715 112.018 88.6617C112.574 88.6422 113.131 88.569 113.688 88.442C113.736 88.5104 113.805 88.5592 113.893 88.5885C113.98 88.608 114.073 88.6324 114.171 88.6617C114.269 88.6813 114.356 88.7057 114.435 88.735C114.522 88.7643 114.581 88.8229 114.61 88.9108ZM121.437 88.8229C121.437 88.9205 121.407 89.0035 121.349 89.0719C121.3 89.1305 121.236 89.1842 121.158 89.233C121.09 89.2819 121.017 89.3258 120.938 89.3649C120.87 89.4039 120.807 89.4528 120.748 89.5114C120.709 89.5504 120.68 89.5992 120.66 89.6578C120.65 89.7067 120.626 89.7408 120.587 89.7604C120.528 89.8092 120.465 89.8385 120.396 89.8483C120.328 89.858 120.255 89.8727 120.177 89.8922C120.108 89.902 120.04 89.9215 119.972 89.9508C119.903 89.9703 119.845 90.0143 119.796 90.0826C119.337 90.1315 118.883 90.1949 118.434 90.2731C117.994 90.3512 117.54 90.3903 117.071 90.3903C116.983 90.3903 116.886 90.4 116.778 90.4196C116.681 90.4293 116.588 90.4391 116.5 90.4489C116.295 90.4684 116.09 90.483 115.885 90.4928C115.689 90.5026 115.489 90.5074 115.284 90.5074C115.001 90.5074 114.718 90.4977 114.435 90.4781C114.151 90.4489 113.873 90.4049 113.6 90.3463C113.531 90.2975 113.453 90.2584 113.365 90.2291C113.277 90.1998 113.185 90.1705 113.087 90.1412C112.999 90.1119 112.916 90.0778 112.838 90.0387C112.76 89.9996 112.701 89.941 112.662 89.8629C112.516 89.8531 112.384 89.8239 112.267 89.775C112.159 89.7262 112.057 89.6725 111.959 89.6139C111.871 89.5455 111.778 89.4772 111.681 89.4088C111.583 89.3405 111.471 89.2819 111.344 89.233C111.246 89.0963 111.144 88.9645 111.036 88.8375C110.938 88.7008 110.816 88.5885 110.67 88.5006C110.641 88.3151 110.592 88.1295 110.523 87.944C110.465 87.7584 110.401 87.5778 110.333 87.402C110.274 87.2164 110.226 87.0309 110.187 86.8453C110.138 86.6598 110.113 86.4694 110.113 86.274C110.113 86.1373 110.133 85.9713 110.172 85.776C110.211 85.5807 110.26 85.3854 110.318 85.1901C110.387 84.985 110.465 84.7946 110.553 84.6188C110.641 84.443 110.729 84.3014 110.816 84.194C110.846 84.1647 110.88 84.1403 110.919 84.1207C110.958 84.1012 110.992 84.0719 111.021 84.0328C111.109 83.9352 111.202 83.8571 111.3 83.7985C111.397 83.7301 111.5 83.652 111.607 83.5641C111.646 83.525 111.676 83.4811 111.695 83.4323C111.725 83.3834 111.764 83.3395 111.812 83.3004C111.842 83.2809 111.881 83.276 111.93 83.2858C111.988 83.2955 112.037 83.2858 112.076 83.2565C112.115 83.2272 112.135 83.193 112.135 83.1539C112.135 83.1149 112.149 83.0807 112.179 83.0514C112.188 83.0416 112.218 83.0416 112.267 83.0514C112.315 83.0514 112.345 83.0514 112.354 83.0514C112.423 83.0514 112.501 83.0074 112.589 82.9196C112.677 82.8219 112.75 82.7584 112.809 82.7291C112.877 82.6901 112.945 82.6656 113.014 82.6559C113.082 82.6364 113.155 82.6071 113.233 82.568C113.341 82.5094 113.443 82.4655 113.541 82.4362C113.648 82.3971 113.756 82.3531 113.863 82.3043C113.922 82.2848 113.976 82.2506 114.024 82.2018C114.073 82.153 114.122 82.1188 114.171 82.0992C114.259 82.0699 114.352 82.0504 114.449 82.0406C114.557 82.0211 114.654 82.0065 114.742 81.9967C114.84 81.9772 114.933 81.9576 115.021 81.9381C115.118 81.9088 115.206 81.86 115.284 81.7916H115.401C115.577 81.7916 115.748 81.7672 115.914 81.7184C116.08 81.6696 116.251 81.6451 116.427 81.6451C116.476 81.6451 116.549 81.6549 116.646 81.6744C116.725 81.6256 116.812 81.6012 116.91 81.6012C117.076 81.6012 117.242 81.6451 117.408 81.733C117.574 81.8112 117.745 81.8502 117.921 81.8502H118.009C118.048 81.8502 118.087 81.8453 118.126 81.8356C118.233 81.943 118.36 82.0016 118.507 82.0114C118.663 82.0211 118.795 82.0651 118.902 82.1432C118.971 82.2018 119.024 82.2701 119.063 82.3483C119.112 82.4264 119.151 82.5094 119.181 82.5973L119.269 82.861C119.298 82.9489 119.337 83.027 119.386 83.0953C119.337 83.4469 119.19 83.7301 118.946 83.9449C118.712 84.15 118.414 84.2526 118.053 84.2526C117.916 84.2526 117.799 84.2379 117.701 84.2086C117.613 84.1696 117.53 84.1305 117.452 84.0914C117.384 84.0524 117.311 84.0133 117.232 83.9742C117.154 83.9352 117.066 83.9059 116.969 83.8864C117.076 83.691 117.145 83.4811 117.174 83.2565C117.066 83.2076 116.959 83.1735 116.852 83.1539C116.744 83.1344 116.642 83.1002 116.544 83.0514C116.28 83.1198 116.021 83.1686 115.768 83.1979C115.523 83.2174 115.294 83.3199 115.079 83.5055C115.03 83.4957 114.977 83.486 114.918 83.4762C114.869 83.4664 114.82 83.4615 114.771 83.4615C114.713 83.4615 114.596 83.5055 114.42 83.5934C114.244 83.6715 114.054 83.7643 113.849 83.8717C113.653 83.9791 113.463 84.0865 113.277 84.194C113.102 84.3014 112.979 84.3746 112.911 84.4137C112.833 84.4625 112.765 84.5211 112.706 84.5895C112.647 84.6578 112.589 84.7311 112.53 84.8092C112.472 84.8776 112.413 84.9459 112.354 85.0143C112.296 85.0729 112.223 85.1168 112.135 85.1461C112.115 85.2535 112.081 85.3463 112.032 85.4244C111.983 85.5026 111.93 85.5856 111.871 85.6735C111.861 85.8492 111.842 86.025 111.812 86.2008C111.793 86.3766 111.783 86.5524 111.783 86.7281V86.9186C111.783 86.9772 111.793 87.0309 111.812 87.0797C111.91 87.2067 111.988 87.3483 112.047 87.5045C112.115 87.6608 112.228 87.7682 112.384 87.8268C112.394 87.8658 112.389 87.8903 112.369 87.9C112.359 87.9098 112.35 87.9342 112.34 87.9733C112.398 88.0807 112.472 88.1686 112.56 88.2369C112.657 88.2955 112.755 88.359 112.853 88.4274C112.95 88.486 113.043 88.5494 113.131 88.6178C113.219 88.6862 113.287 88.774 113.336 88.8815C113.482 88.8815 113.619 88.9059 113.746 88.9547C113.883 89.0035 114.01 89.0573 114.127 89.1158C114.254 89.1744 114.371 89.2281 114.479 89.277C114.596 89.3258 114.713 89.3502 114.83 89.3502C114.938 89.3502 115.035 89.3356 115.123 89.3063C115.377 89.3844 115.631 89.443 115.885 89.4821C116.148 89.5114 116.412 89.526 116.676 89.526C116.998 89.526 117.32 89.5065 117.643 89.4674C117.965 89.4283 118.287 89.3942 118.609 89.3649C118.727 89.3453 118.839 89.3356 118.946 89.3356C119.054 89.3356 119.161 89.3258 119.269 89.3063C119.405 89.2867 119.532 89.2233 119.649 89.1158C119.776 89.0084 119.898 88.9303 120.016 88.8815C120.123 88.9498 120.25 88.984 120.396 88.984C120.562 88.984 120.724 88.9596 120.88 88.9108C121.036 88.8522 121.197 88.8229 121.363 88.8229H121.437ZM130.46 84.6188C130.421 84.7164 130.382 84.8092 130.343 84.8971C130.304 84.985 130.274 85.0826 130.255 85.1901C130.187 85.2389 130.108 85.278 130.021 85.3073C129.942 85.3268 129.859 85.3512 129.771 85.3805C129.684 85.4 129.601 85.4293 129.522 85.4684C129.454 85.4977 129.4 85.5465 129.361 85.6149C129.332 85.7614 129.317 85.8981 129.317 86.025C129.317 86.191 129.347 86.3326 129.405 86.4498C129.376 86.5377 129.356 86.6305 129.347 86.7281C129.337 86.8258 129.332 86.9186 129.332 87.0065C129.332 87.3287 129.371 87.651 129.449 87.9733C129.527 88.2858 129.571 88.6031 129.581 88.9254C129.581 88.9742 129.576 89.028 129.566 89.0865C129.557 89.1451 129.552 89.1989 129.552 89.2477C129.552 89.4528 129.63 89.5895 129.786 89.6578C129.757 89.7067 129.742 89.7506 129.742 89.7897C129.742 89.8678 129.752 89.9362 129.771 89.9948C129.791 90.0533 129.796 90.1168 129.786 90.1852C129.835 90.2828 129.884 90.3707 129.933 90.4489C129.981 90.5172 130.016 90.6051 130.035 90.7125C129.967 90.8492 129.884 90.9762 129.786 91.0934C129.688 91.2008 129.62 91.3375 129.581 91.5035C129.542 91.4938 129.498 91.4889 129.449 91.4889C129.381 91.4889 129.327 91.5035 129.288 91.5328C129.249 91.5621 129.215 91.5963 129.186 91.6354C129.166 91.6842 129.142 91.7281 129.112 91.7672C129.083 91.816 129.044 91.8502 128.995 91.8698H128.951C128.902 91.8795 128.858 91.8746 128.819 91.8551C128.79 91.8453 128.761 91.8405 128.731 91.8405C128.712 91.8405 128.673 91.8502 128.614 91.8698C128.536 91.7721 128.482 91.6549 128.453 91.5182C128.424 91.3912 128.409 91.2643 128.409 91.1373C128.409 91.0006 128.429 90.8785 128.468 90.7711C128.36 90.6832 128.292 90.5514 128.263 90.3756C128.243 90.1998 128.219 90.0533 128.189 89.9362C128.111 89.5748 128.019 89.2233 127.911 88.8815C127.813 88.5397 127.755 88.1881 127.735 87.8268C127.726 87.6901 127.721 87.5582 127.721 87.4313V86.6696C127.721 86.5426 127.726 86.4205 127.735 86.3033C127.735 86.2155 127.74 86.1324 127.75 86.0543C127.77 85.9664 127.779 85.8785 127.779 85.7906C127.779 85.6735 127.74 85.5612 127.662 85.4537C126.969 85.483 126.31 85.61 125.685 85.8346C125.069 86.0494 124.454 86.3082 123.839 86.611C123.8 86.8356 123.775 87.0553 123.766 87.2701C123.756 87.485 123.751 87.7047 123.751 87.9293V88.5739C123.751 88.818 123.761 89.0231 123.78 89.1891C123.829 89.4723 123.971 89.692 124.205 89.8483C124.449 89.9948 124.693 90.1071 124.938 90.1852C124.928 90.3317 124.898 90.4586 124.85 90.566C124.801 90.6637 124.737 90.7565 124.659 90.8444C124.591 90.9225 124.513 91.0006 124.425 91.0787C124.337 91.1569 124.249 91.2448 124.161 91.3424C124.083 91.2936 124.005 91.2594 123.927 91.2399C123.849 91.2203 123.766 91.2106 123.678 91.2106C123.59 91.2008 123.502 91.191 123.414 91.1813C123.326 91.1715 123.238 91.152 123.15 91.1227L122.828 90.6832C122.721 90.5367 122.604 90.3903 122.477 90.2438V90.1119C122.477 89.8483 122.428 89.5944 122.33 89.3502C122.232 89.1061 122.159 88.8571 122.11 88.6031C122.14 88.5153 122.159 88.4274 122.169 88.3395C122.179 88.2516 122.184 88.1588 122.184 88.0612C122.184 87.8658 122.174 87.6754 122.154 87.4899C122.145 87.3043 122.149 87.1188 122.169 86.9332H122.096C122.008 86.9332 121.915 86.9576 121.817 87.0065C121.72 87.0455 121.622 87.0944 121.524 87.153C121.437 87.2018 121.349 87.2506 121.261 87.2994C121.183 87.3385 121.114 87.358 121.056 87.358C121.026 87.358 120.997 87.3531 120.968 87.3434C120.938 87.3336 120.904 87.3287 120.865 87.3287C120.816 87.3287 120.758 87.3483 120.689 87.3873C120.621 87.4264 120.548 87.4703 120.47 87.5192C120.382 87.5582 120.294 87.5973 120.206 87.6364C120.118 87.6754 120.03 87.6949 119.942 87.6949C119.806 87.6949 119.669 87.6364 119.532 87.5192C119.513 87.441 119.508 87.3678 119.518 87.2994C119.518 87.2311 119.518 87.1578 119.518 87.0797C119.518 87.0016 119.503 86.9186 119.474 86.8307C119.542 86.7037 119.635 86.6061 119.752 86.5377C119.859 86.4596 119.977 86.3912 120.104 86.3326C120.221 86.2643 120.343 86.2008 120.47 86.1422C120.597 86.0739 120.704 85.986 120.792 85.8785H120.88C121.017 85.8785 121.139 85.8492 121.246 85.7906C121.363 85.7321 121.495 85.7076 121.642 85.7174C121.69 85.6979 121.725 85.6246 121.744 85.4977L121.803 85.5123C122.018 85.5123 122.208 85.4391 122.374 85.2926C122.481 84.6871 122.569 84.0768 122.638 83.4615C122.706 82.8463 122.74 82.2311 122.74 81.6158C122.74 81.5573 122.721 81.4987 122.682 81.4401C122.662 81.3619 122.652 81.2887 122.652 81.2203V81.0006C122.652 80.8932 122.657 80.7809 122.667 80.6637C122.677 80.5465 122.701 80.4293 122.74 80.3121C122.838 80.2535 122.94 80.2242 123.048 80.2242C123.175 80.2242 123.297 80.2438 123.414 80.2828C123.541 80.3121 123.663 80.3365 123.78 80.3561C123.868 80.444 123.932 80.5416 123.971 80.649C124.02 80.7565 124.049 80.8688 124.059 80.986C124.068 81.0934 124.068 81.2057 124.059 81.3229C124.059 81.4303 124.059 81.5377 124.059 81.6451C124.059 81.86 124.083 82.0699 124.132 82.275C124.181 82.4801 124.205 82.6803 124.205 82.8756C124.205 82.9244 124.186 82.9635 124.146 82.9928C124.117 83.0123 124.103 83.0758 124.103 83.1832C124.103 83.2906 124.112 83.403 124.132 83.5201C124.151 83.6373 124.161 83.7545 124.161 83.8717C124.161 84.0084 124.142 84.15 124.103 84.2965C124.063 84.443 124.029 84.5846 124 84.7213C124.586 84.6725 125.187 84.5992 125.802 84.5016C126.417 84.4039 127.003 84.2477 127.56 84.0328C127.569 84.0133 127.574 83.984 127.574 83.9449C127.574 83.8864 127.569 83.8278 127.56 83.7692C127.55 83.7106 127.545 83.6471 127.545 83.5787C127.545 83.4615 127.584 83.3688 127.662 83.3004C127.613 83.027 127.579 82.7535 127.56 82.4801C127.54 82.2067 127.53 81.9332 127.53 81.6598V80.8248C127.53 80.5514 127.525 80.278 127.516 80.0045C127.594 79.9557 127.677 79.9313 127.765 79.9313C127.872 79.9313 127.97 79.9606 128.058 80.0192C128.155 80.068 128.268 80.0924 128.395 80.0924C128.482 80.0924 128.556 80.0778 128.614 80.0485C128.722 80.1461 128.795 80.2731 128.834 80.4293C128.873 80.5856 128.907 80.7467 128.937 80.9127C128.966 81.0787 128.995 81.2448 129.024 81.4108C129.063 81.567 129.137 81.694 129.244 81.7916L129.259 81.8356C129.259 81.8746 129.239 81.9039 129.2 81.9235C129.161 81.943 129.142 81.9821 129.142 82.0406V82.0992C129.181 82.2555 129.21 82.4166 129.229 82.5826C129.249 82.7487 129.264 82.9196 129.273 83.0953C129.293 83.2614 129.317 83.4274 129.347 83.5934C129.376 83.7496 129.43 83.8961 129.508 84.0328C129.557 84.0231 129.62 84.0182 129.698 84.0182C129.894 84.0182 130.045 84.0865 130.152 84.2233C130.27 84.3502 130.372 84.4821 130.46 84.6188ZM133.346 89.5553C133.346 89.7018 133.316 89.8434 133.258 89.9801C133.209 90.1071 133.15 90.234 133.082 90.361L132.877 90.7418C132.809 90.8688 132.755 91.0006 132.716 91.1373L132.657 91.1227C132.521 91.1227 132.389 91.1422 132.262 91.1813C132.135 91.2106 132.008 91.2448 131.881 91.2838C131.754 91.3229 131.622 91.3619 131.485 91.401C131.358 91.4401 131.227 91.4596 131.09 91.4596C131.07 91.3229 131.031 91.2008 130.973 91.0934C130.904 90.986 130.787 90.9323 130.621 90.9323C130.592 90.8541 130.577 90.7711 130.577 90.6832C130.567 90.5953 130.562 90.5123 130.562 90.4342C130.562 90.3463 130.558 90.2633 130.548 90.1852C130.528 90.0973 130.499 90.0143 130.46 89.9362C130.636 89.7994 130.782 89.6383 130.899 89.4528C131.017 89.2574 131.148 89.0817 131.295 88.9254C131.412 88.9547 131.534 88.9694 131.661 88.9694C131.808 88.9694 131.954 88.9547 132.101 88.9254C132.247 88.8864 132.394 88.8668 132.54 88.8668C132.696 88.8668 132.843 88.9059 132.979 88.984C133.009 89.0328 133.028 89.0865 133.038 89.1451C133.048 89.2037 133.062 89.2623 133.082 89.3209C133.111 89.3698 133.141 89.4137 133.17 89.4528C133.209 89.4918 133.268 89.5114 133.346 89.5114V89.5553ZM136.993 89.5553C136.993 89.7018 136.964 89.8434 136.905 89.9801C136.856 90.1071 136.798 90.234 136.729 90.361L136.524 90.7418C136.456 90.8688 136.402 91.0006 136.363 91.1373L136.305 91.1227C136.168 91.1227 136.036 91.1422 135.909 91.1813C135.782 91.2106 135.655 91.2448 135.528 91.2838C135.401 91.3229 135.27 91.3619 135.133 91.401C135.006 91.4401 134.874 91.4596 134.737 91.4596C134.718 91.3229 134.679 91.2008 134.62 91.0934C134.552 90.986 134.435 90.9323 134.269 90.9323C134.239 90.8541 134.225 90.7711 134.225 90.6832C134.215 90.5953 134.21 90.5123 134.21 90.4342C134.21 90.3463 134.205 90.2633 134.195 90.1852C134.176 90.0973 134.146 90.0143 134.107 89.9362C134.283 89.7994 134.43 89.6383 134.547 89.4528C134.664 89.2574 134.796 89.0817 134.942 88.9254C135.06 88.9547 135.182 88.9694 135.309 88.9694C135.455 88.9694 135.602 88.9547 135.748 88.9254C135.895 88.8864 136.041 88.8668 136.188 88.8668C136.344 88.8668 136.49 88.9059 136.627 88.984C136.656 89.0328 136.676 89.0865 136.686 89.1451C136.695 89.2037 136.71 89.2623 136.729 89.3209C136.759 89.3698 136.788 89.4137 136.817 89.4528C136.856 89.4918 136.915 89.5114 136.993 89.5114V89.5553ZM140.641 89.5553C140.641 89.7018 140.611 89.8434 140.553 89.9801C140.504 90.1071 140.445 90.234 140.377 90.361L140.172 90.7418C140.104 90.8688 140.05 91.0006 140.011 91.1373L139.952 91.1227C139.815 91.1227 139.684 91.1422 139.557 91.1813C139.43 91.2106 139.303 91.2448 139.176 91.2838C139.049 91.3229 138.917 91.3619 138.78 91.401C138.653 91.4401 138.521 91.4596 138.385 91.4596C138.365 91.3229 138.326 91.2008 138.268 91.0934C138.199 90.986 138.082 90.9323 137.916 90.9323C137.887 90.8541 137.872 90.7711 137.872 90.6832C137.862 90.5953 137.857 90.5123 137.857 90.4342C137.857 90.3463 137.853 90.2633 137.843 90.1852C137.823 90.0973 137.794 90.0143 137.755 89.9362C137.931 89.7994 138.077 89.6383 138.194 89.4528C138.312 89.2574 138.443 89.0817 138.59 88.9254C138.707 88.9547 138.829 88.9694 138.956 88.9694C139.103 88.9694 139.249 88.9547 139.396 88.9254C139.542 88.8864 139.688 88.8668 139.835 88.8668C139.991 88.8668 140.138 88.9059 140.274 88.984C140.304 89.0328 140.323 89.0865 140.333 89.1451C140.343 89.2037 140.357 89.2623 140.377 89.3209C140.406 89.3698 140.436 89.4137 140.465 89.4528C140.504 89.4918 140.562 89.5114 140.641 89.5114V89.5553Z" fill="#555555"/>
<path d="M35.9639 133.45C35.9053 133.548 35.8613 133.65 35.832 133.758C35.8125 133.865 35.7979 133.973 35.7881 134.08H35.6855C35.6074 134.08 35.5391 134.07 35.4805 134.051C35.4219 134.021 35.3535 133.997 35.2754 133.978C35.3145 134.349 35.3389 134.725 35.3486 135.105C35.3584 135.486 35.3633 135.862 35.3633 136.233C35.3633 136.702 35.3584 137.171 35.3486 137.64C35.3389 138.099 35.334 138.562 35.334 139.031C35.334 139.256 35.3193 139.48 35.29 139.705C35.2705 139.92 35.2119 140.13 35.1143 140.335C35.1338 140.501 35.1484 140.662 35.1582 140.818C35.168 140.965 35.1729 141.121 35.1729 141.287C35.1729 141.746 35.1436 142.205 35.085 142.664C35.0361 143.113 34.9727 143.562 34.8945 144.012C34.8652 144.188 34.8359 144.368 34.8066 144.554C34.7871 144.729 34.7529 144.9 34.7041 145.066C34.6846 145.115 34.6553 145.164 34.6162 145.213C34.5869 145.262 34.5625 145.311 34.543 145.359C34.4258 145.613 34.2939 145.867 34.1475 146.121C34.0107 146.365 33.8447 146.59 33.6494 146.795C33.5029 146.805 33.3613 146.844 33.2246 146.912C33.0879 146.98 32.9609 147.015 32.8438 147.015C32.7363 147.015 32.6484 146.961 32.5801 146.854L32.4336 146.912C32.3848 146.932 32.3311 146.946 32.2725 146.956C31.9404 146.819 31.623 146.653 31.3203 146.458C31.0273 146.263 30.7832 146.009 30.5879 145.696H30.5293C30.4414 145.696 30.3779 145.677 30.3389 145.638C30.29 145.589 30.2363 145.53 30.1777 145.462C30.1289 145.384 30.085 145.315 30.0459 145.257C29.9287 145.071 29.8018 144.886 29.665 144.7C29.5283 144.515 29.3672 144.358 29.1816 144.231C29.1035 143.938 28.9863 143.689 28.8301 143.484C28.6738 143.27 28.5127 143.04 28.3467 142.796C28.2197 142.308 27.9854 141.854 27.6436 141.434C27.6924 141.385 27.7168 141.351 27.7168 141.331C27.7168 141.282 27.6973 141.243 27.6582 141.214C27.6289 141.175 27.6143 141.136 27.6143 141.097C27.6143 141.058 27.624 141.028 27.6436 141.009C27.5166 140.872 27.4092 140.721 27.3213 140.555C27.2432 140.379 27.165 140.203 27.0869 140.027C27.0186 139.852 26.9404 139.676 26.8525 139.5C26.7744 139.324 26.6768 139.163 26.5596 139.017C26.4521 139.085 26.3838 139.168 26.3545 139.266C26.335 139.363 26.3252 139.466 26.3252 139.573C26.3252 139.651 26.3252 139.729 26.3252 139.808C26.335 139.886 26.3398 139.964 26.3398 140.042C26.3398 140.237 26.3154 140.428 26.2666 140.613C26.2275 140.799 26.1982 140.989 26.1787 141.185C26.1689 141.321 26.1641 141.473 26.1641 141.639C26.1738 141.805 26.1689 141.971 26.1494 142.137C26.1396 142.303 26.1152 142.464 26.0762 142.62C26.0371 142.776 25.9688 142.908 25.8711 143.016C25.8125 143.572 25.7393 144.129 25.6514 144.686C25.5635 145.242 25.4805 145.799 25.4023 146.355C25.3828 146.453 25.3633 146.575 25.3438 146.722C25.3242 146.868 25.2998 147.015 25.2705 147.161C25.251 147.317 25.2314 147.464 25.2119 147.601C25.2021 147.747 25.1973 147.864 25.1973 147.952C25.1973 148.05 25.2217 148.143 25.2705 148.23C25.3193 148.328 25.3438 148.421 25.3438 148.509C25.3438 148.577 25.3193 148.616 25.2705 148.626C25.2314 148.646 25.207 148.685 25.1973 148.743C25.2656 148.958 25.2998 149.202 25.2998 149.476C25.2998 149.554 25.2949 149.632 25.2852 149.71C25.2754 149.798 25.2607 149.881 25.2412 149.959C25.2217 150.008 25.1875 150.052 25.1387 150.091C25.0898 150.14 25.0654 150.184 25.0654 150.223C25.0654 150.262 25.085 150.291 25.124 150.311C25.0654 150.369 24.9922 150.408 24.9043 150.428C24.8164 150.447 24.7529 150.501 24.7139 150.589C24.6162 150.511 24.5186 150.438 24.4209 150.369C24.3232 150.311 24.2305 150.242 24.1426 150.164L24.0986 150.149C24.0303 150.149 23.9717 150.169 23.9229 150.208C23.8838 150.257 23.8301 150.281 23.7617 150.281C23.7422 150.281 23.7227 150.276 23.7031 150.267C23.6934 150.267 23.6787 150.267 23.6592 150.267L23.5713 149.886C23.542 149.759 23.5029 149.642 23.4541 149.534C23.5322 149.329 23.5811 149.095 23.6006 148.831C23.6299 148.577 23.6592 148.318 23.6885 148.055C23.7178 147.791 23.7617 147.537 23.8203 147.293C23.8789 147.059 23.9863 146.854 24.1426 146.678C24.1426 146.6 24.1133 146.546 24.0547 146.517C24.0059 146.487 23.9814 146.424 23.9814 146.326C23.9814 146.307 23.9863 146.272 23.9961 146.224C24.0156 146.175 24.0303 146.121 24.04 146.062C24.0596 146.004 24.0742 145.95 24.084 145.901C24.1035 145.843 24.1182 145.799 24.1279 145.77C24.2061 145.389 24.2646 144.998 24.3037 144.598C24.3525 144.197 24.4746 143.826 24.6699 143.484C24.6602 143.445 24.6553 143.387 24.6553 143.309C24.6553 143.143 24.6699 142.981 24.6992 142.825C24.7383 142.669 24.7578 142.508 24.7578 142.342C24.7578 142.205 24.7432 142.078 24.7139 141.961C24.7432 141.854 24.7822 141.751 24.8311 141.653C24.8896 141.546 24.9189 141.438 24.9189 141.331C24.9189 141.233 24.8848 141.165 24.8164 141.126C24.8652 141.087 24.8945 141.043 24.9043 140.994C24.9238 140.945 24.9336 140.896 24.9336 140.848C24.9434 140.799 24.9531 140.755 24.9629 140.716C24.9824 140.667 25.0215 140.628 25.0801 140.599C25.0703 140.501 25.0605 140.408 25.0508 140.32C25.0508 140.232 25.0508 140.14 25.0508 140.042C25.0508 139.681 25.0703 139.324 25.1094 138.973C25.1484 138.611 25.168 138.245 25.168 137.874C25.168 137.513 25.1387 137.161 25.0801 136.819L25.2412 136.497C25.1436 136.419 25.0801 136.292 25.0508 136.116C25.0215 135.94 25.002 135.75 24.9922 135.545C24.9824 135.34 24.9629 135.14 24.9336 134.944C24.9141 134.739 24.8604 134.573 24.7725 134.446V134.314C24.7725 134.158 24.7627 134.007 24.7432 133.86C24.7236 133.714 24.7139 133.567 24.7139 133.421V133.289C24.7627 133.27 24.7969 133.235 24.8164 133.187C24.8457 133.138 24.8652 133.089 24.875 133.04H24.9336C25.0508 133.04 25.168 133.03 25.2852 133.011C25.4023 132.991 25.5195 132.981 25.6367 132.981H25.8271C25.9443 133.069 26.0469 133.172 26.1348 133.289C26.2227 133.406 26.3301 133.514 26.457 133.611V133.875C26.5449 133.992 26.6133 134.119 26.6621 134.256C26.7109 134.393 26.7598 134.534 26.8086 134.681C26.8672 134.827 26.9258 134.969 26.9844 135.105C27.043 135.242 27.126 135.359 27.2334 135.457C27.2139 135.555 27.2041 135.633 27.2041 135.691C27.2041 135.818 27.2139 135.945 27.2334 136.072C27.2627 136.199 27.2822 136.321 27.292 136.438C27.3311 136.487 27.3652 136.551 27.3945 136.629C27.4238 136.697 27.4727 136.741 27.541 136.761C27.5898 137.142 27.6875 137.503 27.834 137.845C27.9902 138.187 28.1025 138.543 28.1709 138.914C28.249 138.992 28.3076 139.09 28.3467 139.207C28.3857 139.314 28.4248 139.422 28.4639 139.529C28.5127 139.637 28.5615 139.739 28.6104 139.837C28.6689 139.925 28.752 139.988 28.8594 140.027C28.918 140.262 28.9912 140.496 29.0791 140.73C29.167 140.965 29.3037 141.165 29.4893 141.331C29.4893 141.526 29.5186 141.697 29.5771 141.844C29.6455 141.98 29.7188 142.112 29.7969 142.239C29.8848 142.356 29.9629 142.474 30.0312 142.591C30.0996 142.708 30.1436 142.835 30.1631 142.972C30.2998 143.177 30.4561 143.367 30.6318 143.543C30.8174 143.719 31.0029 143.89 31.1885 144.056C31.3838 144.212 31.5742 144.373 31.7598 144.539C31.9453 144.705 32.1162 144.881 32.2725 145.066C32.3799 145.076 32.4678 145.101 32.5361 145.14C32.6143 145.169 32.7021 145.193 32.7998 145.213C32.8682 145.164 32.9219 145.105 32.9609 145.037C33.0098 144.959 33.0537 144.881 33.0928 144.803C33.1318 144.725 33.1709 144.651 33.21 144.583C33.2588 144.505 33.3174 144.437 33.3857 144.378C33.3857 144.358 33.3809 144.344 33.3711 144.334C33.3711 144.314 33.3711 144.295 33.3711 144.275C33.3711 144.168 33.3857 144.085 33.415 144.026C33.4541 143.958 33.498 143.885 33.5469 143.807V143.426C33.625 143.279 33.6787 143.123 33.708 142.957C33.7373 142.791 33.752 142.625 33.752 142.459C33.752 142.322 33.7471 142.186 33.7373 142.049C33.7275 141.902 33.7227 141.756 33.7227 141.609C33.7227 141.521 33.7275 141.434 33.7373 141.346C33.7471 141.248 33.7666 141.16 33.7959 141.082C33.8154 141.062 33.8496 141.033 33.8984 140.994C33.9473 140.945 33.9717 140.916 33.9717 140.906C33.9717 140.857 33.957 140.809 33.9277 140.76C33.8984 140.711 33.8838 140.662 33.8838 140.613C33.8838 140.545 33.9131 140.491 33.9717 140.452V140.364C33.9717 140.315 33.9619 140.271 33.9424 140.232C33.9326 140.184 33.9033 140.149 33.8545 140.13C33.9033 140.071 33.9375 140.003 33.957 139.925C33.9766 139.837 33.9863 139.749 33.9863 139.661C33.9961 139.563 33.9961 139.471 33.9863 139.383C33.9863 139.295 33.9863 139.212 33.9863 139.134C33.9863 139.046 33.9912 138.953 34.001 138.855C34.0107 138.758 34.0498 138.675 34.1182 138.606C34.0889 138.489 34.0693 138.377 34.0596 138.27C34.0498 138.152 34.0449 138.035 34.0449 137.918C34.0449 137.713 34.0547 137.508 34.0742 137.303C34.0938 137.098 34.1035 136.888 34.1035 136.673C34.1035 136.595 34.0986 136.517 34.0889 136.438C34.0791 136.351 34.0742 136.268 34.0742 136.189C34.0742 136.111 34.0889 136.077 34.1182 136.087C34.1572 136.087 34.1768 136.062 34.1768 136.014C34.1768 135.945 34.167 135.877 34.1475 135.809C34.1377 135.74 34.1279 135.672 34.1182 135.604C34.0986 135.438 34.084 135.271 34.0742 135.105C34.0645 134.93 34.0596 134.754 34.0596 134.578C34.0596 134.471 34.0596 134.363 34.0596 134.256C34.0693 134.139 34.0889 134.026 34.1182 133.919C34.0596 133.831 34.0205 133.748 34.001 133.67C33.9912 133.582 33.9814 133.504 33.9717 133.436L33.9424 133.216C33.9326 133.138 33.9033 133.06 33.8545 132.981C33.8447 132.972 33.8398 132.942 33.8398 132.894C33.8398 132.815 33.8594 132.757 33.8984 132.718C33.8496 132.552 33.7812 132.391 33.6934 132.234C33.6152 132.078 33.5664 131.907 33.5469 131.722C33.4395 131.663 33.3564 131.57 33.2979 131.443C33.249 131.307 33.2246 131.185 33.2246 131.077C33.2246 130.95 33.2588 130.828 33.3271 130.711C33.3955 130.584 33.5029 130.521 33.6494 130.521C33.708 130.521 33.7617 130.54 33.8105 130.579C33.8691 130.608 33.9229 130.647 33.9717 130.696C34.0303 130.735 34.084 130.774 34.1328 130.813C34.1914 130.843 34.25 130.857 34.3086 130.857C34.3477 130.857 34.4062 130.848 34.4844 130.828C34.5918 130.975 34.6992 131.111 34.8066 131.238C34.9238 131.355 35.041 131.478 35.1582 131.604C35.1582 131.771 35.1875 131.922 35.2461 132.059C35.3047 132.195 35.3682 132.327 35.4365 132.454C35.5049 132.571 35.5635 132.688 35.6123 132.806C35.6709 132.923 35.6953 133.05 35.6855 133.187C35.7051 133.255 35.7441 133.304 35.8027 133.333C35.8613 133.362 35.915 133.401 35.9639 133.45ZM46.4668 138.519C46.4082 138.606 46.374 138.704 46.3643 138.812C46.3545 138.919 46.3496 139.017 46.3496 139.104C46.3496 139.222 46.3496 139.339 46.3496 139.456C46.3594 139.563 46.3643 139.671 46.3643 139.778V139.998C46.3447 140.066 46.3154 140.135 46.2764 140.203C46.2373 140.271 46.208 140.34 46.1885 140.408C46.0518 140.77 45.9834 141.131 45.9834 141.492V141.521C45.9346 141.639 45.8857 141.746 45.8369 141.844C45.7979 141.941 45.7588 142.039 45.7197 142.137C45.6807 142.225 45.6514 142.322 45.6318 142.43C45.6123 142.527 45.6074 142.645 45.6172 142.781C45.4805 143.123 45.2998 143.436 45.0752 143.719C44.8506 143.992 44.6309 144.275 44.416 144.568C44.2109 144.646 44.0205 144.749 43.8447 144.876C43.6787 145.003 43.5176 145.145 43.3613 145.301C43.0586 145.398 42.7607 145.511 42.4678 145.638C42.1748 145.765 41.9111 145.936 41.6768 146.15C41.4912 146.17 41.3057 146.199 41.1201 146.238C40.9346 146.277 40.7539 146.336 40.5781 146.414H40.4023C40.3145 146.414 40.251 146.395 40.2119 146.355C40.085 146.424 39.9531 146.473 39.8164 146.502C39.6797 146.521 39.543 146.531 39.4062 146.531C39.2305 146.531 39.0547 146.521 38.8789 146.502C38.7129 146.473 38.542 146.443 38.3662 146.414C38.2686 146.277 38.1318 146.175 37.9561 146.106C37.7803 146.028 37.624 145.955 37.4873 145.887C37.2041 145.496 36.999 145.12 36.8721 144.759C36.7451 144.388 36.6133 143.973 36.4766 143.514C36.4961 143.377 36.5303 143.245 36.5791 143.118C36.6279 142.981 36.6475 142.835 36.6377 142.679C36.8135 142.171 37.043 141.712 37.3262 141.302C37.6191 140.882 37.9512 140.481 38.3223 140.101C38.3223 140.042 38.332 139.993 38.3516 139.954C38.3809 139.915 38.3857 139.856 38.3662 139.778C38.376 139.788 38.3955 139.793 38.4248 139.793C38.5029 139.793 38.5518 139.773 38.5713 139.734C38.5908 139.686 38.5957 139.632 38.5859 139.573C38.9375 139.349 39.2549 139.09 39.5381 138.797C39.8311 138.504 40.1631 138.26 40.5342 138.064C40.5635 137.977 40.6123 137.903 40.6807 137.845C40.749 137.786 40.8027 137.718 40.8418 137.64C41.1543 137.552 41.4375 137.42 41.6914 137.244C41.9453 137.068 42.2139 136.912 42.4971 136.775C42.6533 136.688 42.7998 136.629 42.9365 136.6C43.083 136.561 43.2393 136.521 43.4053 136.482C43.4639 136.463 43.5176 136.448 43.5664 136.438C43.6152 136.429 43.6689 136.424 43.7275 136.424C43.9033 136.424 44.0742 136.458 44.2402 136.526C44.4062 136.585 44.5771 136.614 44.7529 136.614C44.8018 136.614 44.8408 136.614 44.8701 136.614C44.9092 136.604 44.9482 136.595 44.9873 136.585C45.1533 136.79 45.3633 136.946 45.6172 137.054C45.6758 137.2 45.7441 137.327 45.8223 137.435C45.9102 137.542 45.998 137.649 46.0859 137.757C46.1738 137.854 46.252 137.967 46.3203 138.094C46.3984 138.211 46.4473 138.353 46.4668 138.519ZM45.002 139.28C45.002 139.231 44.9971 139.188 44.9873 139.148C44.8896 139.119 44.7969 139.08 44.709 139.031C44.6211 138.982 44.5234 138.958 44.416 138.958C44.3477 138.958 44.2793 138.973 44.2109 139.002C44.2012 138.934 44.1719 138.885 44.123 138.855C44.084 138.826 44.0352 138.802 43.9766 138.782C43.9277 138.753 43.874 138.733 43.8154 138.724C43.7666 138.704 43.7227 138.675 43.6836 138.636C43.6543 138.558 43.6201 138.479 43.5811 138.401C43.5518 138.313 43.4932 138.25 43.4053 138.211C43.3174 138.299 43.2148 138.372 43.0977 138.431C42.9805 138.479 42.8584 138.528 42.7314 138.577C42.6143 138.626 42.4971 138.685 42.3799 138.753C42.2725 138.821 42.1797 138.904 42.1016 139.002H41.8379C41.7793 139.109 41.6963 139.192 41.5889 139.251C41.4814 139.3 41.3887 139.373 41.3105 139.471C41.1543 139.549 41.0078 139.646 40.8711 139.764C40.7441 139.871 40.6172 139.988 40.4902 140.115C40.3633 140.232 40.2363 140.354 40.1094 140.481C39.9922 140.608 39.8652 140.726 39.7285 140.833C39.6016 141.106 39.46 141.346 39.3037 141.551C39.1572 141.746 39.0156 141.946 38.8789 142.151C38.752 142.356 38.6396 142.581 38.542 142.825C38.4541 143.06 38.4102 143.353 38.4102 143.704V143.851C38.4102 143.899 38.415 143.948 38.4248 143.997C38.5518 144.134 38.6543 144.28 38.7324 144.437C38.8203 144.593 38.9619 144.705 39.1572 144.773C39.3525 144.852 39.5576 144.886 39.7725 144.876C39.9971 144.866 40.2119 144.891 40.417 144.949C40.8857 144.861 41.335 144.72 41.7646 144.524C42.2041 144.319 42.6191 144.075 43.0098 143.792C43.0684 143.743 43.1367 143.694 43.2148 143.646C43.293 143.587 43.3564 143.528 43.4053 143.47C43.4541 143.421 43.4932 143.367 43.5225 143.309C43.5615 143.25 43.6006 143.196 43.6396 143.147C43.7178 143.021 43.8057 142.894 43.9033 142.767C44.001 142.64 44.1035 142.522 44.2109 142.415C44.2598 142.2 44.3232 141.995 44.4014 141.8C44.4795 141.595 44.5576 141.395 44.6357 141.199C44.7139 141.004 44.7773 140.804 44.8262 140.599C44.8848 140.394 44.9141 140.179 44.9141 139.954C44.9141 139.905 44.9092 139.852 44.8994 139.793C44.8994 139.734 44.8945 139.681 44.8848 139.632C44.9629 139.524 45.002 139.407 45.002 139.28ZM60.0898 137.581C60.0508 137.708 59.9873 137.825 59.8994 137.933L59.6504 138.24C59.5723 138.338 59.5039 138.445 59.4453 138.562C59.3965 138.67 59.3818 138.797 59.4014 138.943C59.3818 138.943 59.3574 138.943 59.3281 138.943C59.2988 138.934 59.2744 138.929 59.2549 138.929C59.0986 138.929 58.9766 138.968 58.8887 139.046C58.8105 139.114 58.7031 139.173 58.5664 139.222C58.5469 139.163 58.5225 139.109 58.4932 139.061C58.4639 139.002 58.4199 138.963 58.3613 138.943C58.127 138.992 57.8926 139.031 57.6582 139.061C57.4238 139.08 57.1895 139.109 56.9551 139.148C56.8477 139.168 56.7402 139.197 56.6328 139.236C56.5254 139.266 56.4131 139.295 56.2959 139.324C56.2373 139.344 56.1738 139.354 56.1055 139.354C56.0371 139.344 55.9688 139.344 55.9004 139.354C55.666 139.363 55.4121 139.383 55.1387 139.412C54.8652 139.432 54.6211 139.505 54.4062 139.632C54.3086 139.612 54.2061 139.598 54.0986 139.588C53.9912 139.578 53.8838 139.573 53.7764 139.573C53.542 139.573 53.2832 139.598 53 139.646C52.7266 139.686 52.4824 139.769 52.2676 139.896C52.2188 139.876 52.165 139.861 52.1064 139.852C52.0576 139.842 51.999 139.837 51.9307 139.837C51.9111 139.837 51.8965 139.842 51.8867 139.852C51.877 139.852 51.8623 139.852 51.8428 139.852C51.833 139.939 51.8428 140.027 51.8721 140.115C51.9111 140.193 51.9746 140.257 52.0625 140.306C52.0234 140.413 52.0039 140.53 52.0039 140.657C52.0039 140.823 52.0137 140.989 52.0332 141.155C52.0625 141.321 52.0771 141.487 52.0771 141.653C52.0771 141.839 52.0527 141.985 52.0039 142.093C52.1016 142.386 52.1504 142.698 52.1504 143.03C52.1504 143.147 52.1406 143.265 52.1211 143.382C52.1113 143.489 52.1064 143.606 52.1064 143.733C52.1064 143.841 52.1455 143.929 52.2236 143.997C52.3018 144.056 52.3408 144.139 52.3408 144.246C52.3408 144.285 52.3311 144.324 52.3115 144.363C52.4482 144.334 52.5801 144.295 52.707 144.246C52.834 144.188 52.9658 144.158 53.1025 144.158C53.1807 144.158 53.2539 144.173 53.3223 144.202C53.4004 144.231 53.4688 144.271 53.5273 144.319C53.5176 144.368 53.5078 144.422 53.498 144.48C53.498 144.539 53.498 144.598 53.498 144.656C53.498 144.764 53.498 144.866 53.498 144.964C53.5078 145.052 53.5176 145.149 53.5273 145.257C53.4492 145.394 53.3564 145.516 53.249 145.623C53.1514 145.73 53.083 145.867 53.0439 146.033C52.8975 146.033 52.7656 146.067 52.6484 146.136C52.541 146.194 52.4385 146.263 52.3408 146.341C52.2432 146.409 52.1455 146.478 52.0479 146.546C51.9502 146.604 51.8428 146.634 51.7256 146.634C51.5791 146.634 51.4766 146.614 51.418 146.575C51.3594 146.526 51.3154 146.478 51.2861 146.429C51.2568 146.38 51.2275 146.336 51.1982 146.297C51.1787 146.258 51.1299 146.243 51.0518 146.253C51.0322 146.126 50.9932 146.009 50.9346 145.901C50.876 145.784 50.8125 145.672 50.7441 145.564C50.6855 145.457 50.6221 145.35 50.5537 145.242C50.4951 145.125 50.4512 145.008 50.4219 144.891C50.3633 144.637 50.3389 144.373 50.3486 144.1C50.3584 143.826 50.3145 143.562 50.2168 143.309C50.2363 143.172 50.251 143.035 50.2607 142.898C50.2705 142.752 50.2754 142.61 50.2754 142.474C50.2754 142.2 50.2656 141.932 50.2461 141.668C50.2363 141.395 50.2266 141.116 50.2168 140.833C50.1484 140.745 50.1045 140.647 50.085 140.54C50.0752 140.423 50.0654 140.311 50.0557 140.203C50.0264 140.174 49.9922 140.145 49.9531 140.115C49.9238 140.086 49.9043 140.047 49.8945 139.998C49.8164 139.979 49.7578 139.969 49.7188 139.969C49.582 139.969 49.4648 140.003 49.3672 140.071C49.2793 140.13 49.1963 140.159 49.1182 140.159C49.04 140.159 48.9668 140.149 48.8984 140.13C48.8301 140.11 48.7617 140.101 48.6934 140.101C48.6348 140.101 48.6006 140.115 48.5908 140.145C48.5908 140.164 48.5713 140.184 48.5322 140.203C48.5029 140.223 48.4346 140.242 48.3271 140.262C48.2197 140.281 48.0977 140.301 47.9609 140.32C47.834 140.33 47.707 140.34 47.5801 140.35C47.4629 140.359 47.3848 140.364 47.3457 140.364C47.1895 140.364 47.0723 140.335 46.9941 140.276C46.9062 140.208 46.8037 140.135 46.6865 140.057C46.7061 139.998 46.7158 139.959 46.7158 139.939C46.7158 139.842 46.6865 139.764 46.6279 139.705C46.5693 139.637 46.54 139.578 46.54 139.529C46.54 139.422 46.584 139.339 46.6719 139.28C46.75 139.222 46.7939 139.129 46.8037 139.002C47.0283 138.904 47.2578 138.831 47.4922 138.782C47.7266 138.733 47.9658 138.694 48.21 138.665C48.4541 138.636 48.6934 138.602 48.9277 138.562C49.1719 138.523 49.4111 138.46 49.6455 138.372C49.7139 138.382 49.7773 138.392 49.8359 138.401C49.9043 138.401 49.9727 138.401 50.041 138.401C50.334 138.401 50.6221 138.372 50.9053 138.313C51.1982 138.245 51.4961 138.211 51.7988 138.211C51.877 138.211 51.9551 138.216 52.0332 138.226C52.1113 138.235 52.1895 138.25 52.2676 138.27C52.6582 138.211 53.0439 138.147 53.4248 138.079C53.8154 138.011 54.2158 137.952 54.626 137.903C54.8213 137.884 55.0117 137.869 55.1973 137.859C55.3926 137.84 55.5879 137.815 55.7832 137.786C55.8516 137.776 55.9004 137.762 55.9297 137.742C55.9688 137.713 55.9883 137.659 55.9883 137.581C56.0762 137.62 56.1738 137.64 56.2812 137.64C56.4473 137.64 56.6084 137.61 56.7646 137.552C56.9209 137.493 57.082 137.464 57.248 137.464C57.2871 137.464 57.3213 137.469 57.3506 137.479C57.3799 137.479 57.4092 137.479 57.4385 137.479C57.5068 137.479 57.541 137.449 57.541 137.391C57.5508 137.322 57.5996 137.278 57.6875 137.259C57.7559 137.239 57.8535 137.225 57.9805 137.215C58.1074 137.205 58.2393 137.195 58.376 137.186C58.5225 137.166 58.6543 137.146 58.7715 137.127C58.8984 137.098 58.9912 137.059 59.0498 137.01L59.1523 136.849C59.3281 136.858 59.4551 136.937 59.5332 137.083C59.6211 137.22 59.6699 137.371 59.6797 137.537C59.7188 137.576 59.7725 137.596 59.8408 137.596C59.9189 137.586 59.9873 137.581 60.0459 137.581H60.0898ZM67.3115 137.684V137.742C67.2432 137.762 67.209 137.811 67.209 137.889C67.1016 137.938 66.9893 137.977 66.8721 138.006C66.7549 138.025 66.6426 138.06 66.5352 138.108C66.4277 138.099 66.3154 138.094 66.1982 138.094C66.0908 138.084 65.9834 138.079 65.876 138.079C65.583 138.079 65.29 138.089 64.9971 138.108C64.7041 138.128 64.4111 138.128 64.1182 138.108C63.9814 138.187 63.8301 138.25 63.6641 138.299C63.5078 138.338 63.3564 138.357 63.21 138.357C63.0928 138.357 62.9902 138.343 62.9023 138.313C62.668 138.431 62.4092 138.528 62.126 138.606C61.8525 138.685 61.5742 138.763 61.291 138.841C61.0078 138.909 60.7344 138.992 60.4707 139.09C60.2168 139.178 59.9922 139.305 59.7969 139.471C59.7773 139.607 59.7627 139.744 59.7529 139.881C59.7432 140.008 59.7383 140.135 59.7383 140.262C59.7383 140.398 59.7432 140.525 59.7529 140.643C59.7725 140.76 59.8066 140.877 59.8555 140.994C59.9043 141.014 59.958 141.028 60.0166 141.038C60.085 141.048 60.1436 141.053 60.1924 141.053C60.2412 141.053 60.29 141.048 60.3389 141.038C60.3877 141.019 60.4219 140.984 60.4414 140.936C60.5879 140.916 60.7344 140.911 60.8809 140.921C61.0273 140.921 61.1738 140.921 61.3203 140.921C61.4668 140.921 61.6084 140.916 61.7451 140.906C61.8916 140.896 62.0332 140.872 62.1699 140.833C62.3262 140.794 62.4775 140.77 62.624 140.76C62.7803 140.75 62.9316 140.74 63.0781 140.73C63.2246 140.721 63.376 140.706 63.5322 140.687C63.6885 140.657 63.8496 140.604 64.0156 140.525C64.1426 140.574 64.2695 140.599 64.3965 140.599C64.5332 140.599 64.665 140.608 64.792 140.628C64.8604 140.677 64.9141 140.73 64.9531 140.789C65.002 140.848 65.0264 140.916 65.0264 140.994C65.0264 141.131 64.9775 141.268 64.8799 141.404C64.7822 141.541 64.7041 141.668 64.6455 141.785H64.4844C64.25 141.785 64.0205 141.819 63.7959 141.888C63.5811 141.946 63.3613 142.02 63.1367 142.107C62.9219 142.186 62.7021 142.259 62.4775 142.327C62.2627 142.386 62.0381 142.415 61.8037 142.415C61.7646 142.415 61.7402 142.439 61.7305 142.488C61.7305 142.527 61.7207 142.557 61.7012 142.576C61.6523 142.566 61.5791 142.562 61.4814 142.562C61.2568 142.562 61.042 142.586 60.8369 142.635C60.6318 142.684 60.4219 142.708 60.207 142.708C60.1484 142.708 60.0898 142.708 60.0312 142.708C59.9727 142.698 59.9141 142.688 59.8555 142.679C59.8066 142.757 59.7432 142.811 59.665 142.84C59.5869 142.859 59.5137 142.898 59.4453 142.957C59.416 143.045 59.3965 143.152 59.3867 143.279C59.3867 143.406 59.3818 143.538 59.3721 143.675C59.3721 143.802 59.3623 143.924 59.3428 144.041C59.3232 144.158 59.2842 144.251 59.2256 144.319C59.2354 144.368 59.2744 144.388 59.3428 144.378C59.4111 144.358 59.4453 144.388 59.4453 144.466C59.4453 144.554 59.4355 144.646 59.416 144.744C59.3965 144.842 59.3867 144.939 59.3867 145.037C59.3867 145.223 59.4062 145.428 59.4453 145.652C59.4941 145.867 59.5625 146.067 59.6504 146.253C59.748 146.438 59.875 146.595 60.0312 146.722C60.1875 146.839 60.3828 146.897 60.6172 146.897C60.7734 146.897 60.9199 146.868 61.0566 146.81C61.1934 146.751 61.3057 146.653 61.3936 146.517L61.4668 146.502C61.5059 146.502 61.54 146.507 61.5693 146.517C61.6084 146.526 61.6475 146.531 61.6865 146.531C61.7451 146.531 61.8184 146.497 61.9062 146.429C62.0039 146.351 62.1064 146.263 62.2139 146.165C62.3311 146.067 62.4482 145.975 62.5654 145.887C62.6826 145.789 62.7949 145.721 62.9023 145.682C62.9707 145.545 63.0342 145.408 63.0928 145.271C63.1611 145.135 63.2588 145.027 63.3857 144.949V144.524C63.4834 144.417 63.5859 144.319 63.6934 144.231C63.8105 144.144 63.8984 144.031 63.957 143.895C64.0059 143.914 64.0498 143.929 64.0889 143.938C64.1377 143.948 64.1865 143.953 64.2354 143.953C64.2842 143.953 64.333 143.948 64.3818 143.938C64.4404 143.929 64.4941 143.914 64.543 143.895C64.6211 144.002 64.6797 144.124 64.7188 144.261C64.7676 144.388 64.8262 144.51 64.8945 144.627C64.8066 144.803 64.7041 145.013 64.5869 145.257C64.4697 145.501 64.3428 145.745 64.2061 145.989C64.0693 146.233 63.9229 146.468 63.7666 146.692C63.6201 146.907 63.4736 147.073 63.3271 147.19C63.2979 147.22 63.2344 147.254 63.1367 147.293C63.0293 147.371 62.9316 147.444 62.8438 147.513C62.7559 147.591 62.6729 147.679 62.5947 147.776C62.3115 147.864 62.0381 147.981 61.7744 148.128C61.5205 148.274 61.2666 148.416 61.0127 148.553C60.8955 148.523 60.7686 148.509 60.6318 148.509C60.5146 148.509 60.3975 148.514 60.2803 148.523C60.1631 148.543 60.0361 148.553 59.8994 148.553C59.8604 148.504 59.8018 148.47 59.7236 148.45C59.6553 148.44 59.6309 148.392 59.6504 148.304C59.3184 148.284 59.0498 148.191 58.8447 148.025C58.6396 147.869 58.4639 147.674 58.3174 147.439C58.1807 147.205 58.0684 146.951 57.9805 146.678C57.8926 146.404 57.7998 146.141 57.7021 145.887V145.843C57.7021 145.794 57.7217 145.765 57.7607 145.755C57.7998 145.745 57.8193 145.716 57.8193 145.667C57.8193 145.647 57.8145 145.633 57.8047 145.623C57.7754 145.516 57.751 145.423 57.7314 145.345C57.7119 145.267 57.7021 145.174 57.7021 145.066C57.7021 144.91 57.7119 144.759 57.7314 144.612C57.751 144.456 57.7607 144.3 57.7607 144.144C57.7607 143.987 57.7412 143.851 57.7021 143.733C57.7412 143.685 57.7754 143.621 57.8047 143.543C57.8242 143.455 57.8389 143.367 57.8486 143.279C57.8584 143.191 57.8633 143.104 57.8633 143.016C57.873 142.928 57.8877 142.85 57.9072 142.781C57.8682 142.674 57.834 142.581 57.8047 142.503C57.7754 142.415 57.7607 142.312 57.7607 142.195V142.093C57.8584 141.927 57.9414 141.756 58.0098 141.58C58.0781 141.404 58.1514 141.224 58.2295 141.038V140.994C58.2295 140.711 58.2197 140.428 58.2002 140.145C58.1807 139.861 58.1709 139.578 58.1709 139.295V139.017C58.1709 138.919 58.1758 138.826 58.1855 138.738C58.2637 138.699 58.3223 138.646 58.3613 138.577C58.4004 138.509 58.459 138.455 58.5371 138.416H59.0205L59.1084 138.27C59.1377 138.221 59.1572 138.167 59.167 138.108C59.2744 138.079 59.377 138.04 59.4746 137.991C59.582 137.933 59.6797 137.874 59.7676 137.815C59.9043 137.737 60.0264 137.669 60.1338 137.61C60.251 137.542 60.3633 137.488 60.4707 137.449C60.5879 137.4 60.71 137.361 60.8369 137.332C60.9639 137.303 61.1104 137.278 61.2764 137.259C61.3545 137.259 61.4033 137.244 61.4229 137.215C61.4521 137.186 61.4912 137.151 61.54 137.112C61.6572 137.132 61.7744 137.151 61.8916 137.171C62.0088 137.181 62.126 137.186 62.2432 137.186C62.4775 137.186 62.6973 137.142 62.9023 137.054C63.1953 137.054 63.4834 137.049 63.7666 137.039C64.0596 137.029 64.3525 137.024 64.6455 137.024C64.8994 137.024 65.1533 137.034 65.4072 137.054C65.6611 137.073 65.9102 137.107 66.1543 137.156C66.2422 137.127 66.3398 137.112 66.4473 137.112C66.5645 137.112 66.6816 137.127 66.7988 137.156C66.9258 137.176 67.0479 137.176 67.165 137.156C67.1748 137.264 67.1992 137.356 67.2383 137.435C67.2871 137.503 67.3115 137.586 67.3115 137.684ZM68.5566 145.096C68.5566 145.242 68.5273 145.384 68.4688 145.521C68.4199 145.647 68.3613 145.774 68.293 145.901L68.0879 146.282C68.0195 146.409 67.9658 146.541 67.9268 146.678L67.8682 146.663C67.7314 146.663 67.5996 146.683 67.4727 146.722C67.3457 146.751 67.2188 146.785 67.0918 146.824C66.9648 146.863 66.833 146.902 66.6963 146.941C66.5693 146.98 66.4375 147 66.3008 147C66.2812 146.863 66.2422 146.741 66.1836 146.634C66.1152 146.526 65.998 146.473 65.832 146.473C65.8027 146.395 65.7881 146.312 65.7881 146.224C65.7783 146.136 65.7734 146.053 65.7734 145.975C65.7734 145.887 65.7686 145.804 65.7588 145.726C65.7393 145.638 65.71 145.555 65.6709 145.477C65.8467 145.34 65.9932 145.179 66.1104 144.993C66.2275 144.798 66.3594 144.622 66.5059 144.466C66.623 144.495 66.7451 144.51 66.8721 144.51C67.0186 144.51 67.165 144.495 67.3115 144.466C67.458 144.427 67.6045 144.407 67.751 144.407C67.9072 144.407 68.0537 144.446 68.1904 144.524C68.2197 144.573 68.2393 144.627 68.249 144.686C68.2588 144.744 68.2734 144.803 68.293 144.861C68.3223 144.91 68.3516 144.954 68.3809 144.993C68.4199 145.032 68.4785 145.052 68.5566 145.052V145.096ZM78.2393 143.235C78.2393 143.343 78.2002 143.426 78.1221 143.484C78.0439 143.533 78.0049 143.602 78.0049 143.689C78.0049 143.729 78.0244 143.777 78.0635 143.836C77.9268 143.836 77.834 143.88 77.7852 143.968C77.7363 144.056 77.6875 144.153 77.6387 144.261H77.4482C77.3994 144.261 77.3604 144.271 77.3311 144.29C77.3018 144.31 77.2725 144.339 77.2432 144.378C77.2236 144.407 77.1943 144.456 77.1553 144.524C76.9697 144.563 76.7891 144.627 76.6133 144.715C76.4473 144.793 76.2812 144.881 76.1152 144.979C75.959 145.066 75.7979 145.159 75.6318 145.257C75.4658 145.345 75.2949 145.418 75.1191 145.477C75.0312 145.623 74.9043 145.74 74.7383 145.828H74.6943C74.6455 145.838 74.6016 145.833 74.5625 145.813C74.5332 145.784 74.4941 145.77 74.4453 145.77C74.416 145.77 74.3965 145.774 74.3867 145.784C74.0938 145.979 73.7666 146.077 73.4053 146.077C73.3076 146.077 73.2148 146.072 73.127 146.062C73.0391 146.043 72.9463 146.033 72.8486 146.033C72.8193 146.033 72.7998 146.043 72.79 146.062L72.7607 146.121C72.751 146.141 72.7363 146.16 72.7168 146.18C72.707 146.199 72.6729 146.209 72.6143 146.209C72.5068 146.209 72.3994 146.194 72.292 146.165C72.1846 146.136 72.0723 146.131 71.9551 146.15C71.7305 146.023 71.5547 145.901 71.4277 145.784C71.3008 145.667 71.1836 145.491 71.0762 145.257C71.0273 145.149 70.959 145.047 70.8711 144.949C70.793 144.852 70.7344 144.744 70.6953 144.627C70.6855 144.588 70.6709 144.52 70.6514 144.422C70.6318 144.314 70.6123 144.202 70.5928 144.085C70.5732 143.968 70.5537 143.855 70.5342 143.748C70.5244 143.641 70.5195 143.567 70.5195 143.528C70.5195 143.411 70.5244 143.299 70.5342 143.191C70.5537 143.074 70.5732 142.957 70.5928 142.84C70.6514 142.469 70.6904 142.098 70.71 141.727C70.7393 141.346 70.8223 140.979 70.959 140.628C70.9395 140.521 70.9297 140.418 70.9297 140.32V139.998C70.9297 139.812 70.9053 139.656 70.8564 139.529C70.9346 139.402 70.9736 139.261 70.9736 139.104C70.9736 138.929 70.9004 138.826 70.7539 138.797V138.753C70.7539 138.548 70.6855 138.387 70.5488 138.27C70.5488 137.928 70.6318 137.674 70.7979 137.508C70.9736 137.332 71.2031 137.181 71.4863 137.054C71.5254 136.995 71.54 136.946 71.5303 136.907C71.5986 136.927 71.6621 136.946 71.7207 136.966C71.7793 136.985 71.8379 136.995 71.8965 136.995C71.9941 136.995 72.082 136.98 72.1602 136.951C72.1895 137.068 72.2627 137.142 72.3799 137.171C72.5068 137.19 72.6094 137.22 72.6875 137.259V137.449C72.6875 137.752 72.7607 138.04 72.9072 138.313C72.8682 138.392 72.8438 138.475 72.834 138.562C72.8242 138.65 72.8193 138.733 72.8193 138.812C72.8193 138.929 72.8242 139.046 72.834 139.163C72.8438 139.28 72.8486 139.393 72.8486 139.5C72.8486 139.617 72.834 139.734 72.8047 139.852C72.7852 139.969 72.7314 140.071 72.6436 140.159C72.6338 140.286 72.624 140.433 72.6143 140.599C72.6143 140.755 72.6045 140.916 72.585 141.082C72.5752 141.248 72.5508 141.409 72.5117 141.565C72.4727 141.722 72.4141 141.849 72.3359 141.946C72.3262 142.093 72.3164 142.244 72.3066 142.4C72.3066 142.547 72.3066 142.688 72.3066 142.825C72.3066 143.04 72.3164 143.294 72.3359 143.587C72.3652 143.88 72.4336 144.124 72.541 144.319C72.5898 144.397 72.6826 144.456 72.8193 144.495C72.9658 144.534 73.083 144.554 73.1709 144.554C73.2783 144.554 73.3857 144.539 73.4932 144.51C73.6104 144.471 73.6934 144.407 73.7422 144.319C73.8008 144.329 73.8398 144.358 73.8594 144.407C73.8789 144.456 73.9131 144.495 73.9619 144.524C74.5186 144.29 75.0752 144.065 75.6318 143.851C76.1885 143.636 76.7354 143.387 77.2725 143.104C77.3506 143.143 77.4336 143.162 77.5215 143.162C77.6191 143.162 77.7168 143.152 77.8145 143.133C77.9121 143.113 78.0098 143.104 78.1074 143.104H78.21C78.2295 143.162 78.2393 143.206 78.2393 143.235ZM85.2852 136.922C85.2852 137.01 85.2461 137.083 85.168 137.142C85.0996 137.2 85.0654 137.244 85.0654 137.273C85.0654 137.332 85.0752 137.376 85.0947 137.405C85.1143 137.425 85.124 137.449 85.124 137.479V137.552C85.0264 137.649 84.9531 137.757 84.9043 137.874C84.8555 137.981 84.8164 138.099 84.7871 138.226C84.7578 138.343 84.7285 138.465 84.6992 138.592C84.6797 138.719 84.6504 138.841 84.6113 138.958C84.5625 139.075 84.499 139.178 84.4209 139.266C84.3428 139.344 84.2793 139.437 84.2305 139.544C84.1523 139.72 84.0938 139.9 84.0547 140.086C84.0156 140.271 83.9326 140.442 83.8057 140.599V140.672C83.7959 140.74 83.8154 140.799 83.8643 140.848C83.6787 141.092 83.5322 141.385 83.4248 141.727C83.3174 142.059 83.2295 142.41 83.1611 142.781C83.0928 143.143 83.0342 143.509 82.9854 143.88C82.9365 144.241 82.8779 144.568 82.8096 144.861C82.8584 145.076 82.9316 145.281 83.0293 145.477C83.1367 145.662 83.2393 145.857 83.3369 146.062C83.5322 146.111 83.7178 146.18 83.8936 146.268C84.0791 146.355 84.2109 146.497 84.2891 146.692C84.2695 146.888 84.2061 147.039 84.0986 147.146C83.9912 147.254 83.8594 147.366 83.7031 147.483C83.5957 147.444 83.5078 147.41 83.4395 147.381C83.3711 147.361 83.2686 147.361 83.1318 147.381C82.9463 147.234 82.7705 147.117 82.6045 147.029C82.4482 146.941 82.3066 146.79 82.1797 146.575C82.1602 146.546 82.1309 146.531 82.0918 146.531H81.96C81.9111 146.414 81.8525 146.292 81.7842 146.165C81.7158 146.028 81.6475 145.892 81.5791 145.755C81.5107 145.608 81.4521 145.467 81.4033 145.33C81.3545 145.184 81.3301 145.052 81.3301 144.935C81.3301 144.437 81.374 143.943 81.4619 143.455C81.5596 142.957 81.6084 142.454 81.6084 141.946V141.8C81.4131 141.849 81.2178 141.917 81.0225 142.005C80.8369 142.093 80.6465 142.161 80.4512 142.21C80.3828 142.229 80.3438 142.264 80.334 142.312C80.3242 142.361 80.2949 142.4 80.2461 142.43C80.1484 142.439 80.0557 142.449 79.9678 142.459C79.8799 142.459 79.7969 142.459 79.7188 142.459C79.5527 142.459 79.377 142.454 79.1914 142.444C79.0156 142.425 78.8398 142.391 78.6641 142.342C78.4883 142.293 78.3223 142.225 78.166 142.137C78.0195 142.049 77.8877 141.937 77.7705 141.8C77.751 141.81 77.7266 141.819 77.6973 141.829C77.668 141.839 77.6387 141.844 77.6094 141.844C77.5801 141.844 77.5508 141.839 77.5215 141.829C77.4922 141.819 77.4678 141.81 77.4482 141.8C77.3701 141.692 77.3066 141.575 77.2578 141.448L77.1113 141.067C77.0625 140.94 77.0088 140.818 76.9502 140.701C76.8916 140.584 76.8135 140.477 76.7158 140.379C76.6865 140.203 76.6719 140.032 76.6719 139.866C76.6719 139.69 76.6865 139.52 76.7158 139.354C76.7354 139.188 76.7695 139.021 76.8184 138.855C76.7793 138.738 76.7549 138.616 76.7451 138.489C76.7256 138.362 76.7158 138.235 76.7158 138.108C76.7158 137.962 76.7305 137.811 76.7598 137.654C76.7891 137.498 76.8379 137.356 76.9062 137.229C76.9746 137.093 77.0723 136.98 77.1992 136.893C77.3164 136.805 77.4629 136.761 77.6387 136.761C77.834 136.761 78.0146 136.814 78.1807 136.922C78.3467 137.02 78.5078 137.122 78.6641 137.229C78.6836 137.347 78.6982 137.464 78.708 137.581C78.7178 137.688 78.7227 137.806 78.7227 137.933C78.7227 138.167 78.708 138.406 78.6787 138.65C78.6592 138.885 78.6494 139.124 78.6494 139.368C78.6494 139.622 78.6787 139.861 78.7373 140.086C78.8057 140.301 78.9229 140.506 79.0889 140.701H79.1475C79.2256 140.691 79.2939 140.706 79.3525 140.745C79.4111 140.784 79.4795 140.804 79.5576 140.804C79.626 140.804 79.6797 140.779 79.7188 140.73C79.7578 140.672 79.8066 140.643 79.8652 140.643C79.9238 140.643 79.9678 140.652 79.9971 140.672C80.0264 140.691 80.0508 140.701 80.0703 140.701C80.1777 140.701 80.2998 140.662 80.4365 140.584C80.5732 140.506 80.6611 140.418 80.7002 140.32C80.7393 140.35 80.7881 140.364 80.8467 140.364C80.9248 140.364 80.998 140.34 81.0664 140.291C81.1348 140.242 81.2227 140.218 81.3301 140.218C81.3887 140.218 81.4082 140.184 81.3887 140.115C81.3789 140.037 81.3984 139.988 81.4473 139.969C81.5645 139.92 81.6914 139.852 81.8281 139.764C81.9746 139.666 82.0918 139.607 82.1797 139.588C82.2285 139.461 82.2871 139.344 82.3555 139.236C82.4336 139.119 82.5117 139.012 82.5898 138.914C82.6191 138.689 82.6777 138.475 82.7656 138.27C82.8535 138.064 82.9463 137.859 83.0439 137.654C83.1416 137.449 83.2344 137.244 83.3223 137.039C83.4102 136.834 83.4688 136.619 83.498 136.395C83.6055 136.287 83.6885 136.17 83.7471 136.043C83.8154 135.916 83.874 135.789 83.9229 135.662C84.0205 135.633 84.1426 135.618 84.2891 135.618C84.4355 135.608 84.5625 135.604 84.6699 135.604H84.9189C84.9482 135.662 84.9873 135.716 85.0361 135.765L85.1826 135.911C85.0947 136.048 85.0508 136.185 85.0508 136.321C85.0508 136.429 85.0752 136.536 85.124 136.644C85.1729 136.741 85.2266 136.834 85.2852 136.922Z" fill="#4D46DD"/>
</svg>
